<svg width="1222" height="697" viewBox="0 0 1222 697" fill="none" xmlns="http://www.w3.org/2000/svg">
<g opacity="0.2">
<path d="M653.728 267.051H212.612V629.167H653.728V267.051Z" fill="url(#paint0_linear)"/>
<path d="M644.263 275.205H222.079V621.01H644.263V275.205Z" fill="white"/>
<path d="M629.117 288.254H237.224V607.96H629.117V288.254Z" fill="#6C63FF"/>
<g opacity="0.5">
<path opacity="0.5" d="M587.466 0H8.14648V218.115H587.466V0Z" fill="url(#paint1_linear)"/>
</g>
<path d="M579.893 2.80273H15.7192V211.591H579.893V2.80273Z" fill="white"/>
<path d="M563.683 15.8516H31.9302V198.541H563.683V15.8516Z" fill="#6C63FF"/>
<path d="M472.923 75.8574L488.852 75.933C488.852 75.933 459.237 110.509 456.818 113.327C455.816 114.274 454.949 115.32 454.235 116.444C452.926 119.639 451.89 122.912 451.135 126.237L436.56 126.3C436.56 126.3 438.828 119.288 438.734 115.553C438.652 112.29 436.719 109.032 435.635 105.759C434.538 102.447 433.05 95.9654 433.05 95.9654H448.035L450.102 103.088L472.923 75.8574" fill="white"/>
<path d="M442.759 83.1491C445.699 84.676 447.503 93.099 447.503 93.099C447.503 93.099 432.121 93.2944 423.751 93.2944H416.517L407.733 126.237H394.3C394.3 126.237 402.66 90.4367 404.634 83.9462C405.273 81.8446 409.015 82.2053 415.334 82.2053H425.425C431.941 82.2053 439.557 81.4883 442.759 83.1491V83.1491ZM380.22 99.1929C380.381 97.5755 379.878 95.9607 378.8 94.6296C377.228 92.5421 375.777 92.0565 371.643 91.945C359.972 91.6291 360.198 99.0814 360.198 99.0814L380.22 99.1929ZM392.879 90.6584C394.589 95.9745 391.329 108.466 391.329 108.466C391.329 108.466 374.303 108.221 364.978 108.466C362.078 108.542 358.608 108.194 357.744 109.356C356.53 110.985 358.188 113.492 359.594 114.551C361.211 115.77 364.362 115.909 365.495 116.033C373.064 116.862 388.905 116.247 388.905 116.247L386.161 126.717C386.161 126.717 363.775 127.684 352.577 125.381C350.423 124.983 348.449 124.056 346.894 122.711C346.511 122.355 346.18 121.87 345.818 121.451C345.216 120.735 344.71 119.963 344.31 119.149C341.753 113.277 344.61 102.029 347.41 96.0008C347.735 95.3025 348.144 94.4163 348.573 93.6635C349.11 92.7248 349.565 91.6651 349.994 91.1038C350.282 90.7168 350.64 90.4675 350.94 90.1023C351.288 89.6779 351.662 89.2694 352.06 88.8785C353.146 87.8746 354.36 86.9788 355.678 86.208C360.343 83.1979 368.785 80.8611 378.928 81.7556C382.747 82.0939 388.514 83.269 391.329 86.6527C392.063 87.9182 392.585 89.2671 392.879 90.6591V90.6584ZM331.264 82.1643L344.29 82.0983C344.29 82.0983 337.03 111.768 333.331 126.237H318.346C307.874 126.237 298.547 127.354 294.579 120.894C290.73 114.622 294.404 104.308 296.129 97.3003C297.349 92.341 299.917 82.2047 299.917 82.2047L313.413 82.0984C313.413 82.0984 309.6 97.8795 308.013 105.759C307.445 108.582 306.273 111.239 307.497 113.326C308.659 115.312 310.287 115.455 315.246 115.553C316.818 115.585 321.964 115.553 321.964 115.553L331.264 82.1644V82.1643ZM270.295 103.533C271.659 99.3576 273.648 94.8302 273.395 91.0679C273.186 89.2866 272.462 87.5789 271.289 86.1013C270.115 84.6237 268.53 83.4234 266.679 82.6103C263.655 81.7446 260.411 81.6191 257.31 82.2479C254.208 82.8767 251.37 84.2349 249.111 86.1714C245.448 89.5903 244.208 93.584 242.911 99.0821C241.945 103.163 241.154 107.472 242.911 110.655C246.021 116.283 255.719 115.054 266.162 115.108C267.712 111.529 268.993 107.509 270.295 103.533V103.533ZM288.379 87.0621C289.867 96.3834 284.158 106.672 280.226 115.619C284.236 115.931 287.75 115.571 288.002 115.829C288.266 116.163 285.315 126.508 284.286 126.535C281.104 126.606 270.559 126.682 266.162 126.682C251.813 126.682 238.39 127.487 231.545 121.34C228.784 118.561 226.993 115.166 226.377 111.546C225.809 106.462 226.335 101.331 227.927 96.4109C229.033 92.3685 230.771 88.4744 233.094 84.8355C239.124 75.768 249.612 69.0372 267.195 70.5909C271.173 71.0211 275.027 72.0773 278.562 73.7068C278.774 73.8138 279.514 74.3212 279.683 74.4103C283.817 76.6765 287.584 82.0849 288.379 87.0621H288.379ZM224.894 82.2182C224.026 85.6237 223.158 89.4841 222.244 92.8492H207.777C208.897 89.1189 209.755 85.4103 210.877 82.165C215.506 82.165 219.81 82.2182 224.895 82.2182L224.894 82.2182ZM207.26 95.9657H221.211C219.387 104.664 215.775 118.695 212.943 128.463C211.171 134.575 209.988 139.035 205.193 142.263C204.764 142.552 204.516 142.414 204.159 142.708C203.276 143.434 199.189 144.276 196.927 144.489C192.809 144.688 188.682 144.676 184.567 144.453C185.75 140.728 187.089 136.253 188.143 132.914C199.164 134.063 199.443 125.088 201.577 116.443C202.811 111.448 206.552 97.9686 207.26 95.9657" fill="white"/>
<path d="M174.708 118.669L174.409 119.336C169.315 127.883 160.288 133.127 147.412 133.358C142.084 133.421 136.801 132.511 131.911 130.688C123.957 127.531 117.423 122.214 113.311 115.552C107.984 106.662 107.023 94.2953 118.101 85.0586C118.272 85.0586 116.757 87.0615 116.928 87.0615L116.623 87.9162C108.641 109.448 133.234 127.901 157.141 125.791C163.723 125.075 169.873 122.582 174.708 118.669" fill="#21609B"/>
<path d="M160.241 109.765C166.256 109.725 172.01 107.646 176.259 103.978C173.004 111.096 163.579 115.672 150.942 114.217C140.359 112.997 130.279 103.822 129.241 94.6289C128.482 87.9385 131.188 83.9455 135.647 79.1016C134.479 80.8729 133.708 82.8178 133.374 84.8348C131.68 99.3075 146.793 109.689 160.241 109.765" fill="#21609B"/>
<path d="M175.654 91.7899C174.719 93.6378 169.336 97.1271 166.958 97.5635C157.544 99.2915 151.515 95.4452 148.357 91.0684C147.772 90.1395 147.273 89.1722 146.865 88.1755C145.64 84.5875 146.203 79.1605 149.856 76.3516C148.822 78.8487 148.587 81.5396 149.174 84.1422C149.728 85.8031 150.568 87.3831 151.665 88.8297C153.073 90.6863 155.036 92.1813 157.348 93.1572C158.25 93.6355 159.207 94.0307 160.205 94.3361C162.577 94.9378 167.584 96.5223 175.655 91.7899" fill="#21609B"/>
<path d="M1041.83 1.17188H708.631V288.255H1041.83V1.17188Z" fill="url(#paint2_linear)"/>
<path d="M1032.37 9.32812H718.097V280.1H1032.37V9.32812Z" fill="white"/>
<path d="M1017.22 22.377H733.243V267.05H1017.22V22.377Z" fill="#6C63FF"/>
<path d="M772.826 93.0084L875.389 61.5234L980.715 92.4485L963.661 209.362L875.389 251.482L788.499 209.922L772.826 93.0084Z" fill="#E23237"/>
<path d="M980.715 92.4485L875.389 61.5234V251.482L963.661 209.433L980.715 92.4485V92.4485Z" fill="#B52E31"/>
<path d="M875.552 83.7031L811.643 206.214L835.517 205.865L848.348 178.227H905.68L919.729 206.214L942.547 206.564L875.552 83.7031ZM875.715 122.954L897.315 161.855H856.712L875.715 122.954Z" fill="white"/>
<path d="M291.2 488.6H323.6V517C323.6 519.667 323.933 521.4 324.6 522.2C325.4 522.867 327.133 523.2 329.8 523.2H355.6C358.133 523.2 359.8 522.867 360.6 522.2C361.4 521.4 361.8 519.667 361.8 517V410.6H394.2V519.2C394.2 529.733 388.933 535 378.4 535H307C296.467 535 291.2 529.733 291.2 519.2V488.6ZM497.623 517V484.4C497.623 481.867 497.223 480.2 496.423 479.4C495.757 478.6 494.09 478.2 491.423 478.2H437.423C426.89 478.2 421.623 472.933 421.623 462.4V426.4C421.623 415.867 426.89 410.6 437.423 410.6H513.423C523.957 410.6 529.223 415.867 529.223 426.4V448.6H497.023V428.6C497.023 425.933 496.623 424.267 495.823 423.6C495.023 422.8 493.357 422.4 490.823 422.4H460.223C457.557 422.4 455.823 422.8 455.023 423.6C454.357 424.267 454.023 425.933 454.023 428.6V460.2C454.023 462.867 454.357 464.6 455.023 465.4C455.823 466.067 457.557 466.4 460.223 466.4H514.023C524.557 466.4 529.823 471.667 529.823 482.2V519.2C529.823 529.733 524.557 535 514.023 535H438.023C427.49 535 422.223 529.733 422.223 519.2V497H454.423V517C454.423 519.667 454.757 521.4 455.423 522.2C456.223 522.867 457.957 523.2 460.623 523.2H491.423C494.09 523.2 495.757 522.867 496.423 522.2C497.223 521.4 497.623 519.667 497.623 517Z" fill="#FE0101"/>
<path d="M1214.12 342.082H773V629.165H1214.12V342.082Z" fill="url(#paint3_linear)"/>
<path d="M1204.65 350.238H782.466V621.01H1204.65V350.238Z" fill="white"/>
<path d="M1189.89 359H798V603.673H1189.89V359Z" fill="#6C63FF"/>
<path d="M1078.79 425.865C1076.52 425.865 1074.67 427.717 1074.67 429.994V448.654C1074.67 450.931 1076.52 452.781 1078.79 452.779H1120.96C1121.05 452.759 1121.16 452.747 1121.25 452.726C1122.29 452.503 1123.35 452.305 1124.44 452.131C1124.55 452.115 1124.66 452.096 1124.77 452.08C1128.51 451.499 1132.49 451.199 1136.42 451.199C1140.34 451.199 1144.33 451.499 1148.07 452.08C1148.17 452.096 1148.28 452.115 1148.39 452.131C1149.48 452.305 1150.55 452.505 1151.59 452.73C1151.68 452.751 1151.78 452.762 1151.87 452.783H1159.2C1161.48 452.783 1163.33 450.931 1163.33 448.654V429.994C1163.33 427.717 1161.48 425.865 1159.2 425.865H1078.79L1078.79 425.865ZM1088.13 432.199C1092.05 432.199 1095.25 435.396 1095.25 439.324C1095.25 443.252 1092.05 446.449 1088.13 446.449C1084.2 446.449 1081 443.252 1081 439.324C1081 435.396 1084.2 432.199 1088.13 432.199V432.199ZM1088.13 435.365C1085.94 435.365 1084.17 437.141 1084.17 439.324C1084.17 441.508 1085.94 443.283 1088.13 443.283C1090.31 443.283 1092.08 441.508 1092.08 439.324C1092.08 437.141 1090.31 435.365 1088.13 435.365V435.365ZM1125.33 435.365C1125.75 435.366 1126.16 435.533 1126.45 435.83C1126.75 436.127 1126.92 436.529 1126.92 436.949C1126.92 437.369 1126.75 437.772 1126.45 438.069C1126.16 438.366 1125.75 438.533 1125.33 438.533C1125.13 438.533 1124.92 438.492 1124.73 438.413C1124.54 438.333 1124.36 438.217 1124.21 438.069C1124.07 437.922 1123.95 437.748 1123.87 437.556C1123.79 437.363 1123.75 437.157 1123.75 436.949C1123.75 436.741 1123.79 436.535 1123.87 436.343C1123.95 436.151 1124.07 435.976 1124.21 435.829C1124.36 435.682 1124.54 435.565 1124.73 435.486C1124.92 435.406 1125.13 435.365 1125.33 435.365V435.365ZM1131.67 435.365C1131.87 435.365 1132.08 435.406 1132.27 435.486C1132.46 435.565 1132.64 435.682 1132.79 435.829C1132.93 435.976 1133.05 436.151 1133.13 436.343C1133.21 436.535 1133.25 436.741 1133.25 436.949C1133.25 437.157 1133.21 437.363 1133.13 437.556C1133.05 437.748 1132.93 437.922 1132.79 438.069C1132.64 438.217 1132.46 438.333 1132.27 438.413C1132.08 438.492 1131.87 438.533 1131.67 438.533C1131.25 438.533 1130.84 438.366 1130.55 438.069C1130.25 437.772 1130.08 437.369 1130.08 436.949C1130.08 436.529 1130.25 436.127 1130.55 435.83C1130.84 435.533 1131.25 435.366 1131.67 435.365V435.365ZM1138 435.365C1138.21 435.365 1138.41 435.406 1138.61 435.486C1138.8 435.565 1138.97 435.682 1139.12 435.829C1139.27 435.976 1139.38 436.151 1139.46 436.343C1139.54 436.535 1139.58 436.741 1139.58 436.949C1139.58 437.157 1139.54 437.363 1139.46 437.556C1139.38 437.748 1139.27 437.922 1139.12 438.069C1138.97 438.217 1138.8 438.333 1138.61 438.413C1138.41 438.492 1138.21 438.533 1138 438.533C1137.79 438.533 1137.59 438.492 1137.39 438.413C1137.2 438.333 1137.03 438.217 1136.88 438.069C1136.73 437.922 1136.62 437.748 1136.54 437.556C1136.46 437.363 1136.42 437.157 1136.42 436.949C1136.42 436.741 1136.46 436.535 1136.54 436.343C1136.62 436.151 1136.73 435.976 1136.88 435.829C1137.03 435.682 1137.2 435.565 1137.39 435.486C1137.59 435.406 1137.79 435.365 1138 435.365V435.365ZM1144.33 435.365C1144.75 435.366 1145.16 435.533 1145.45 435.83C1145.75 436.127 1145.92 436.529 1145.92 436.949C1145.92 437.369 1145.75 437.772 1145.45 438.069C1145.16 438.366 1144.75 438.533 1144.33 438.533C1144.13 438.533 1143.92 438.492 1143.73 438.413C1143.54 438.333 1143.36 438.217 1143.21 438.069C1143.07 437.922 1142.95 437.748 1142.87 437.556C1142.79 437.363 1142.75 437.157 1142.75 436.949C1142.75 436.741 1142.79 436.535 1142.87 436.343C1142.95 436.151 1143.07 435.976 1143.21 435.829C1143.36 435.682 1143.54 435.565 1143.73 435.486C1143.92 435.406 1144.13 435.365 1144.33 435.365V435.365ZM1150.67 435.365C1150.87 435.365 1151.08 435.406 1151.27 435.486C1151.46 435.565 1151.64 435.682 1151.79 435.829C1151.93 435.976 1152.05 436.151 1152.13 436.343C1152.21 436.535 1152.25 436.741 1152.25 436.949C1152.25 437.157 1152.21 437.363 1152.13 437.556C1152.05 437.748 1151.93 437.922 1151.79 438.069C1151.64 438.217 1151.46 438.333 1151.27 438.413C1151.08 438.492 1150.87 438.533 1150.67 438.533C1150.25 438.533 1149.84 438.366 1149.55 438.069C1149.25 437.772 1149.08 437.369 1149.08 436.949C1149.08 436.529 1149.25 436.127 1149.55 435.83C1149.84 435.533 1150.25 435.366 1150.67 435.365V435.365ZM1128.5 440.115C1128.71 440.115 1128.91 440.156 1129.11 440.236C1129.3 440.315 1129.47 440.432 1129.62 440.579C1129.77 440.726 1129.88 440.901 1129.96 441.093C1130.04 441.285 1130.08 441.491 1130.08 441.699C1130.08 441.907 1130.04 442.113 1129.96 442.306C1129.88 442.498 1129.77 442.672 1129.62 442.819C1129.47 442.967 1129.3 443.083 1129.11 443.163C1128.91 443.242 1128.71 443.283 1128.5 443.283C1128.29 443.283 1128.09 443.242 1127.89 443.163C1127.7 443.083 1127.53 442.967 1127.38 442.819C1127.23 442.672 1127.12 442.498 1127.04 442.306C1126.96 442.113 1126.92 441.907 1126.92 441.699C1126.92 441.491 1126.96 441.285 1127.04 441.093C1127.12 440.901 1127.23 440.726 1127.38 440.579C1127.53 440.432 1127.7 440.315 1127.89 440.236C1128.09 440.156 1128.29 440.115 1128.5 440.115ZM1134.83 440.115C1135.25 440.116 1135.66 440.283 1135.95 440.58C1136.25 440.877 1136.42 441.279 1136.42 441.699C1136.42 442.119 1136.25 442.522 1135.95 442.819C1135.66 443.116 1135.25 443.283 1134.83 443.283C1134.63 443.283 1134.42 443.242 1134.23 443.163C1134.04 443.083 1133.86 442.967 1133.71 442.819C1133.57 442.672 1133.45 442.498 1133.37 442.306C1133.29 442.113 1133.25 441.907 1133.25 441.699C1133.25 441.491 1133.29 441.285 1133.37 441.093C1133.45 440.901 1133.57 440.726 1133.71 440.579C1133.86 440.432 1134.04 440.315 1134.23 440.236C1134.42 440.156 1134.63 440.115 1134.83 440.115V440.115ZM1141.17 440.115C1141.37 440.115 1141.58 440.156 1141.77 440.236C1141.96 440.315 1142.14 440.432 1142.29 440.579C1142.43 440.726 1142.55 440.901 1142.63 441.093C1142.71 441.285 1142.75 441.491 1142.75 441.699C1142.75 441.907 1142.71 442.113 1142.63 442.306C1142.55 442.498 1142.43 442.672 1142.29 442.819C1142.14 442.967 1141.96 443.083 1141.77 443.163C1141.58 443.242 1141.37 443.283 1141.17 443.283C1140.75 443.283 1140.34 443.116 1140.05 442.819C1139.75 442.522 1139.58 442.119 1139.58 441.699C1139.58 441.279 1139.75 440.877 1140.05 440.58C1140.34 440.283 1140.75 440.116 1141.17 440.115ZM1147.5 440.115C1147.71 440.115 1147.91 440.156 1148.11 440.236C1148.3 440.315 1148.47 440.432 1148.62 440.579C1148.77 440.726 1148.88 440.901 1148.96 441.093C1149.04 441.285 1149.08 441.491 1149.08 441.699C1149.08 441.907 1149.04 442.113 1148.96 442.306C1148.88 442.498 1148.77 442.672 1148.62 442.819C1148.47 442.967 1148.3 443.083 1148.11 443.163C1147.91 443.242 1147.71 443.283 1147.5 443.283C1147.29 443.283 1147.09 443.242 1146.89 443.163C1146.7 443.083 1146.53 442.967 1146.38 442.819C1146.23 442.672 1146.12 442.498 1146.04 442.306C1145.96 442.113 1145.92 441.907 1145.92 441.699C1145.92 441.491 1145.96 441.285 1146.04 441.093C1146.12 440.901 1146.23 440.726 1146.38 440.579C1146.53 440.432 1146.7 440.315 1146.89 440.236C1147.09 440.156 1147.29 440.115 1147.5 440.115V440.115ZM1153.83 440.115C1154.25 440.116 1154.66 440.283 1154.95 440.58C1155.25 440.877 1155.42 441.279 1155.42 441.699C1155.42 442.119 1155.25 442.522 1154.95 442.819C1154.66 443.116 1154.25 443.283 1153.83 443.283C1153.63 443.283 1153.42 443.242 1153.23 443.163C1153.04 443.083 1152.86 442.967 1152.71 442.819C1152.57 442.672 1152.45 442.498 1152.37 442.306C1152.29 442.113 1152.25 441.907 1152.25 441.699C1152.25 441.491 1152.29 441.285 1152.37 441.093C1152.45 440.901 1152.57 440.726 1152.71 440.579C1152.86 440.432 1153.04 440.315 1153.23 440.236C1153.42 440.156 1153.63 440.115 1153.83 440.115V440.115ZM1136.41 454.4C1132.57 454.4 1128.73 454.672 1125.19 455.219C1124.97 455.253 1124.76 455.292 1124.54 455.328C1123.72 455.464 1122.93 455.62 1122.15 455.785C1119.65 456.317 1117.44 456.966 1115.6 457.699C1115.51 457.731 1115.43 457.765 1115.36 457.799C1114.96 457.962 1114.58 458.129 1114.22 458.299C1113.91 458.448 1113.61 458.6 1113.33 458.752C1113.26 458.79 1113.19 458.827 1113.12 458.865C1111.49 459.779 1110.43 460.725 1109.9 461.605L1109.88 461.633C1109.76 461.848 1109.67 462.057 1109.61 462.262C1109.55 462.467 1109.5 462.674 1109.5 462.877C1109.5 466.894 1121.01 471.387 1136.42 471.387C1151.82 471.387 1163.33 466.894 1163.33 462.877C1163.33 460.25 1158.39 457.427 1150.67 455.783C1149.9 455.618 1149.11 455.464 1148.29 455.33C1148.07 455.293 1147.86 455.253 1147.64 455.219C1144.09 454.672 1140.25 454.4 1136.41 454.4L1136.41 454.4ZM1078.8 455.949C1076.52 455.949 1074.67 457.801 1074.67 460.078V478.738C1074.67 481.015 1076.52 482.865 1078.8 482.865H1106.33V477.72V477.127V476.533V462.877V462.283C1106.33 462.046 1106.39 461.828 1106.48 461.625C1107.01 459.385 1108.96 457.487 1111.83 455.949H1078.8L1078.8 455.949ZM1088.13 462.283C1092.05 462.283 1095.25 465.48 1095.25 469.408C1095.25 473.336 1092.05 476.533 1088.13 476.533C1084.2 476.533 1081 473.336 1081 469.408C1081 465.48 1084.2 462.283 1088.13 462.283ZM1088.13 465.449C1085.94 465.449 1084.17 467.225 1084.17 469.408C1084.17 471.591 1085.94 473.365 1088.13 473.365C1090.31 473.365 1092.08 471.591 1092.08 469.408C1092.08 467.225 1090.31 465.449 1088.13 465.449ZM1109.5 468.322V476.179C1109.55 476.377 1109.57 476.583 1109.53 476.789C1109.51 476.9 1109.5 477.014 1109.5 477.127C1109.5 477.298 1109.55 477.469 1109.59 477.64C1109.63 477.783 1109.67 477.926 1109.73 478.07C1109.78 478.184 1109.84 478.297 1109.9 478.41C1109.98 478.537 1110.06 478.662 1110.15 478.787C1110.26 478.945 1110.4 479.101 1110.55 479.26C1110.61 479.329 1110.67 479.397 1110.74 479.467C1114.1 482.708 1123.99 485.635 1136.42 485.635C1148.86 485.635 1158.75 482.707 1162.1 479.465C1162.16 479.401 1162.22 479.337 1162.28 479.273C1162.44 479.109 1162.58 478.946 1162.7 478.781C1162.78 478.662 1162.86 478.54 1162.93 478.422C1163 478.303 1163.06 478.183 1163.11 478.064C1163.17 477.928 1163.21 477.788 1163.24 477.652C1163.28 477.476 1163.33 477.301 1163.33 477.127C1163.33 477.01 1163.32 476.895 1163.3 476.779C1163.27 476.591 1163.29 476.404 1163.33 476.22V468.322C1163.31 468.336 1163.29 468.351 1163.27 468.365C1162.97 468.59 1162.66 468.809 1162.33 469.021C1162.26 469.069 1162.19 469.112 1162.12 469.158C1161.84 469.334 1161.55 469.503 1161.25 469.67C1161.16 469.717 1161.08 469.765 1160.99 469.812C1160.62 470.01 1160.24 470.203 1159.84 470.388C1159.77 470.419 1159.71 470.448 1159.64 470.478C1159.29 470.638 1158.93 470.791 1158.56 470.941C1158.46 470.986 1158.35 471.029 1158.24 471.072C1157.8 471.243 1157.35 471.41 1156.89 471.57C1156.87 471.58 1156.84 471.586 1156.82 471.594C1156.38 471.744 1155.92 471.888 1155.46 472.027C1155.34 472.065 1155.21 472.102 1155.09 472.138C1154.63 472.273 1154.17 472.403 1153.7 472.525C1153.66 472.535 1153.62 472.547 1153.59 472.556C1153.08 472.688 1152.55 472.809 1152.02 472.928C1151.89 472.956 1151.76 472.983 1151.63 473.013C1151.17 473.112 1150.72 473.206 1150.25 473.295C1150.16 473.312 1150.07 473.33 1149.98 473.347C1149.43 473.449 1148.88 473.544 1148.33 473.633C1148.2 473.655 1148.06 473.673 1147.93 473.693C1147.47 473.764 1147.01 473.831 1146.54 473.892C1146.41 473.91 1146.28 473.929 1146.15 473.945C1145.59 474.018 1145.02 474.082 1144.44 474.142C1144.33 474.153 1144.21 474.165 1144.09 474.176C1143.61 474.223 1143.13 474.268 1142.64 474.306C1142.49 474.319 1142.35 474.329 1142.2 474.34C1141.62 474.382 1141.03 474.421 1140.45 474.451C1140.37 474.456 1140.28 474.456 1140.2 474.461C1139.68 474.486 1139.17 474.505 1138.65 474.519C1138.49 474.524 1138.34 474.528 1138.18 474.531C1137.59 474.544 1137 474.556 1136.41 474.556C1135.83 474.556 1135.24 474.544 1134.65 474.531C1134.49 474.528 1134.33 474.524 1134.18 474.519C1133.66 474.505 1133.14 474.486 1132.63 474.461C1132.55 474.456 1132.46 474.456 1132.38 474.451C1131.79 474.421 1131.21 474.382 1130.63 474.34C1130.48 474.329 1130.34 474.318 1130.19 474.306C1129.7 474.267 1129.22 474.223 1128.74 474.176C1128.62 474.165 1128.5 474.155 1128.39 474.142C1127.81 474.082 1127.24 474.016 1126.68 473.945C1126.55 473.929 1126.42 473.91 1126.29 473.892C1125.82 473.831 1125.36 473.764 1124.9 473.693C1124.77 473.673 1124.63 473.653 1124.5 473.633C1123.94 473.544 1123.39 473.449 1122.85 473.347C1122.76 473.33 1122.67 473.312 1122.58 473.295C1122.11 473.206 1121.65 473.112 1121.2 473.013C1121.07 472.985 1120.94 472.958 1120.8 472.928C1120.27 472.809 1119.75 472.688 1119.24 472.556C1119.2 472.547 1119.17 472.535 1119.13 472.525C1118.66 472.402 1118.2 472.271 1117.74 472.138C1117.61 472.102 1117.49 472.065 1117.36 472.027C1116.9 471.888 1116.45 471.744 1116.01 471.594C1115.99 471.584 1115.96 471.578 1115.94 471.57C1115.48 471.412 1115.03 471.243 1114.59 471.072C1114.49 471.029 1114.38 470.986 1114.27 470.941C1113.9 470.791 1113.54 470.638 1113.19 470.478C1113.12 470.45 1113.06 470.419 1112.99 470.388C1112.59 470.203 1112.21 470.01 1111.84 469.812C1111.76 469.766 1111.67 469.717 1111.58 469.67C1111.28 469.502 1110.99 469.332 1110.71 469.158C1110.64 469.112 1110.56 469.067 1110.49 469.021C1110.17 468.808 1109.85 468.588 1109.56 468.363C1109.54 468.349 1109.52 468.336 1109.5 468.322L1109.5 468.322ZM1109.5 482.572V482.865L1109.51 490.635C1109.52 490.769 1109.55 490.903 1109.53 491.039C1109.52 491.11 1109.52 491.18 1109.51 491.252V491.445C1109.52 491.594 1109.55 491.742 1109.59 491.89C1109.62 492.033 1109.67 492.176 1109.73 492.32C1109.78 492.434 1109.84 492.547 1109.9 492.66C1109.98 492.787 1110.05 492.912 1110.14 493.037C1110.26 493.195 1110.4 493.351 1110.55 493.51C1110.61 493.579 1110.67 493.647 1110.74 493.717C1114.1 496.958 1123.99 499.885 1136.42 499.885C1148.86 499.885 1158.75 496.957 1162.1 493.715C1162.16 493.651 1162.22 493.587 1162.28 493.523C1162.44 493.359 1162.57 493.196 1162.7 493.031C1162.78 492.912 1162.85 492.79 1162.92 492.672C1162.99 492.553 1163.06 492.433 1163.11 492.314C1163.17 492.178 1163.21 492.038 1163.24 491.902C1163.28 491.726 1163.33 491.551 1163.33 491.377C1163.33 491.26 1163.32 491.145 1163.3 491.029C1163.27 490.841 1163.3 490.654 1163.34 490.47V482.572C1163.27 482.626 1163.19 482.674 1163.11 482.726C1162.92 482.875 1162.71 483.023 1162.49 483.166C1162.32 483.281 1162.14 483.393 1161.96 483.506C1158.61 485.573 1153.7 487.048 1148.21 487.906C1148.19 487.909 1148.17 487.913 1148.14 487.916C1146.51 488.169 1144.83 488.369 1143.12 488.514C1142.77 488.544 1142.41 488.574 1142.06 488.599C1141.7 488.625 1141.35 488.647 1140.99 488.668C1140.52 488.695 1140.04 488.717 1139.57 488.736C1139.28 488.747 1139 488.758 1138.72 488.765C1137.95 488.788 1137.19 488.803 1136.42 488.803C1135.65 488.803 1134.88 488.788 1134.11 488.765C1133.83 488.758 1133.55 488.743 1133.27 488.732C1132.79 488.713 1132.31 488.691 1131.84 488.664C1131.48 488.645 1131.13 488.621 1130.78 488.596C1130.41 488.57 1130.06 488.54 1129.7 488.51C1128.01 488.366 1126.35 488.172 1124.73 487.92C1124.69 487.913 1124.65 487.907 1124.61 487.9C1119.59 487.113 1115.05 485.814 1111.75 484.014C1111.75 484.012 1111.74 484.011 1111.74 484.01C1111.43 483.843 1111.15 483.67 1110.86 483.496C1110.68 483.382 1110.5 483.27 1110.33 483.154C1110.11 483.01 1109.91 482.864 1109.71 482.715C1109.64 482.667 1109.56 482.621 1109.5 482.572L1109.5 482.572ZM1078.8 486.033C1076.52 486.033 1074.67 487.885 1074.67 490.162V508.82C1074.67 511.097 1076.52 512.949 1078.8 512.949V512.953H1112.59C1111.88 512.603 1111.23 512.23 1110.62 511.839C1110.59 511.82 1110.56 511.802 1110.53 511.783C1109.69 511.235 1108.96 510.648 1108.35 510.023C1108.25 509.914 1108.15 509.804 1108.05 509.693C1107.86 509.473 1107.67 509.251 1107.51 509.021C1107.35 508.793 1107.2 508.564 1107.07 508.33C1107.01 508.212 1106.95 508.095 1106.89 507.976C1106.86 507.917 1106.83 507.861 1106.8 507.802H1106.33V506.22V491.97V491.376V490.783V486.033H1078.8L1078.8 486.033ZM1088.13 492.365C1092.05 492.365 1095.25 495.562 1095.25 499.49C1095.25 503.418 1092.05 506.615 1088.13 506.615C1084.2 506.615 1081 503.418 1081 499.49C1081 495.562 1084.2 492.365 1088.13 492.365ZM1088.13 495.533C1085.94 495.533 1084.17 497.307 1084.17 499.49C1084.17 501.673 1085.94 503.449 1088.13 503.449C1090.31 503.449 1092.08 501.673 1092.08 499.49C1092.08 497.307 1090.31 495.533 1088.13 495.533ZM1163.33 496.826C1163.26 496.88 1163.18 496.928 1163.11 496.98C1162.91 497.129 1162.71 497.273 1162.49 497.416C1162.32 497.531 1162.14 497.643 1161.96 497.756C1158.61 499.823 1153.7 501.298 1148.21 502.156C1148.19 502.159 1148.16 502.167 1148.14 502.17C1146.5 502.423 1144.82 502.621 1143.12 502.765C1142.76 502.795 1142.41 502.824 1142.06 502.849C1141.7 502.875 1141.35 502.897 1140.99 502.918C1140.52 502.945 1140.04 502.967 1139.56 502.986C1139.28 502.997 1139 503.011 1138.72 503.019C1137.95 503.042 1137.18 503.056 1136.42 503.056C1135.65 503.056 1134.88 503.038 1134.11 503.015C1133.83 503.007 1133.55 502.997 1133.27 502.986C1132.79 502.967 1132.31 502.941 1131.84 502.914C1131.48 502.895 1131.13 502.875 1130.78 502.849C1130.41 502.824 1130.06 502.794 1129.7 502.763C1128.01 502.619 1126.34 502.421 1124.72 502.17C1124.68 502.163 1124.65 502.16 1124.61 502.154C1119.59 501.367 1115.05 500.066 1111.75 498.265C1111.75 498.264 1111.74 498.261 1111.74 498.26C1111.43 498.093 1111.15 497.92 1110.86 497.746C1110.68 497.632 1110.5 497.52 1110.33 497.404C1110.11 497.26 1109.91 497.113 1109.71 496.965C1109.65 496.92 1109.58 496.878 1109.52 496.834L1109.53 505.963C1109.56 506.159 1109.64 506.357 1109.72 506.554C1109.77 506.649 1109.81 506.747 1109.86 506.845C1109.86 506.849 1109.86 506.85 1109.87 506.851C1111.09 508.973 1115.44 511.486 1123.32 512.976V512.99C1127.12 513.704 1131.54 514.136 1136.42 514.136C1151.7 514.136 1162.66 509.91 1163.3 505.963C1163.31 505.914 1163.32 505.863 1163.34 505.814V496.826L1163.33 496.826Z" fill="black"/>
<g opacity="0.7">
<path d="M891.89 463L883.21 512H873.27L878.38 483.02L862.91 512H855.84L850.66 483.51L845.62 512H835.68L844.36 463H854.51L861.09 500.87L880.9 463H891.89ZM928.668 477L908.858 513.61C904.565 521.497 898.825 525.44 891.638 525.44C889.818 525.44 887.952 525.183 886.038 524.67L887.298 517.6C887.812 517.787 888.488 517.95 889.328 518.09C890.168 518.23 890.915 518.3 891.568 518.3C893.575 518.3 895.442 517.577 897.168 516.13C898.895 514.73 900.622 512.49 902.348 509.41L895.068 477H904.308L908.088 499.47L919.008 477H928.668ZM943.08 512.7C939.394 512.7 936.104 511.93 933.21 510.39C930.317 508.85 928.147 506.727 926.7 504.02L933.56 498.42C934.727 500.287 936.267 501.803 938.18 502.97C940.094 504.09 942.03 504.65 943.99 504.65C946.557 504.65 948.587 504.067 950.08 502.9C951.62 501.733 952.39 500.17 952.39 498.21C952.39 497.043 951.854 495.947 950.78 494.92C949.754 493.893 947.817 492.61 944.97 491.07C940.91 488.877 937.947 486.66 936.08 484.42C934.26 482.133 933.35 479.637 933.35 476.93C933.35 474.037 934.097 471.493 935.59 469.3C937.13 467.06 939.277 465.333 942.03 464.12C944.83 462.907 948.05 462.3 951.69 462.3C955.097 462.3 958.084 463 960.65 464.4C963.264 465.753 965.13 467.597 966.25 469.93L959.04 474.69C957.22 471.797 954.607 470.35 951.2 470.35C948.867 470.35 947 470.863 945.6 471.89C944.247 472.87 943.57 474.2 943.57 475.88C943.57 477 944.224 478.12 945.53 479.24C946.884 480.313 949.357 481.76 952.95 483.58C956.31 485.307 958.76 487.22 960.3 489.32C961.84 491.373 962.61 493.8 962.61 496.6C962.61 501.593 960.86 505.537 957.36 508.43C953.907 511.277 949.147 512.7 943.08 512.7ZM1012.93 481.48C1012.93 486.707 1012.09 491.467 1010.41 495.76C1008.73 500.007 1006.35 503.553 1003.27 506.4C1000.23 509.2 996.712 511.067 992.698 512C996.432 513.307 1001.19 514.053 1006.98 514.24L1004.18 521.1C999.605 520.867 994.985 519.84 990.318 518.02C985.652 516.2 982.175 514.147 979.888 511.86L980.448 511.79C976.528 510.623 973.425 508.43 971.138 505.21C968.852 501.943 967.708 498.047 967.708 493.52C967.708 487.5 968.805 482.133 970.998 477.42C973.238 472.66 976.342 468.95 980.308 466.29C984.275 463.63 988.778 462.3 993.818 462.3C997.598 462.3 1000.93 463.117 1003.83 464.75C1006.72 466.337 1008.96 468.577 1010.55 471.47C1012.13 474.363 1012.93 477.7 1012.93 481.48ZM993.188 470.28C990.248 470.28 987.612 471.237 985.278 473.15C982.992 475.063 981.195 477.723 979.888 481.13C978.582 484.537 977.928 488.41 977.928 492.75C977.928 496.297 978.815 499.19 980.588 501.43C982.362 503.623 984.672 504.72 987.518 504.72C990.458 504.72 993.072 503.763 995.358 501.85C997.692 499.937 999.512 497.277 1000.82 493.87C1002.12 490.417 1002.78 486.52 1002.78 482.18C1002.78 478.633 1001.89 475.763 1000.12 473.57C998.345 471.377 996.035 470.28 993.188 470.28ZM1023.53 463H1033.61L1026.4 503.95H1049.5L1048.1 512H1014.92L1023.53 463Z" fill="url(#paint4_linear)"/>
</g>
</g>
<defs>
<linearGradient id="paint0_linear" x1="433.17" y1="629.167" x2="433.17" y2="267.051" gradientUnits="userSpaceOnUse">
<stop stop-color="#808080" stop-opacity="0.25"/>
<stop offset="0.53514" stop-color="#808080" stop-opacity="0.12"/>
<stop offset="1" stop-color="#808080" stop-opacity="0.1"/>
</linearGradient>
<linearGradient id="paint1_linear" x1="111119" y1="35561.2" x2="111119" y2="0" gradientUnits="userSpaceOnUse">
<stop stop-color="#808080" stop-opacity="0.25"/>
<stop offset="0.53514" stop-color="#808080" stop-opacity="0.12"/>
<stop offset="1" stop-color="#808080" stop-opacity="0.1"/>
</linearGradient>
<linearGradient id="paint2_linear" x1="188526" y1="61858.3" x2="188526" y2="252.534" gradientUnits="userSpaceOnUse">
<stop stop-color="#808080" stop-opacity="0.25"/>
<stop offset="0.53514" stop-color="#808080" stop-opacity="0.12"/>
<stop offset="1" stop-color="#808080" stop-opacity="0.1"/>
</linearGradient>
<linearGradient id="paint3_linear" x1="283033" y1="135356" x2="283033" y2="73750.3" gradientUnits="userSpaceOnUse">
<stop stop-color="#808080" stop-opacity="0.25"/>
<stop offset="0.53514" stop-color="#808080" stop-opacity="0.12"/>
<stop offset="1" stop-color="#808080" stop-opacity="0.1"/>
</linearGradient>
<linearGradient id="paint4_linear" x1="943.5" y1="437" x2="943.5" y2="528" gradientUnits="userSpaceOnUse">
<stop stop-color="#F21D1D"/>
<stop offset="1" stop-color="#3300FF"/>
</linearGradient>
</defs>
</svg>
