<svg width="880" height="654" viewBox="0 0 880 654" fill="none" xmlns="http://www.w3.org/2000/svg">
<g opacity="0.1">
<path d="M858.539 0.759766H22.0548C16.433 0.769283 11.044 3.28676 7.0688 7.76036C3.09361 12.2339 0.856602 18.2987 0.848145 24.6253V629.218C0.856602 635.545 3.09361 641.61 7.0688 646.083C11.044 650.557 16.433 653.074 22.0548 653.084H858.539C864.161 653.074 869.55 650.557 873.525 646.083C877.501 641.61 879.738 635.545 879.746 629.218V24.6253C879.738 18.2987 877.501 12.2339 873.525 7.76036C869.55 3.28676 864.161 0.769283 858.539 0.759766ZM875.034 629.218C875.029 634.14 873.289 638.858 870.197 642.338C867.105 645.818 862.912 647.775 858.539 647.78H22.0548C17.6818 647.775 13.4893 645.818 10.3972 642.338C7.30496 638.858 5.56559 634.14 5.56073 629.218V24.6253C5.56559 19.704 7.30497 14.9859 10.3972 11.506C13.4893 8.02613 17.6818 6.06868 22.0548 6.06321H858.539C862.912 6.06868 867.105 8.02613 870.197 11.506C873.289 14.9859 875.029 19.704 875.034 24.6253V629.218Z" fill="#3F3D56"/>
<path d="M200.604 301.715H68.6511C63.3411 301.707 58.2505 299.33 54.4957 295.105C50.741 290.88 48.6289 285.151 48.6226 279.175V130.678C48.6289 124.703 50.741 118.974 54.4957 114.748C58.2505 110.523 63.3411 108.146 68.6511 108.139H200.604C205.913 108.146 211.004 110.523 214.759 114.748C218.514 118.974 220.626 124.703 220.632 130.678V279.175C220.626 285.151 218.514 290.88 214.759 295.105C211.004 299.33 205.913 301.707 200.604 301.715Z" fill="#CCCCCC"/>
<path d="M814.974 459.517H65.6724C61.6103 459.517 57.7147 457.701 54.8424 454.469C51.9701 451.237 50.3564 446.852 50.3564 442.281C50.3564 437.71 51.9701 433.326 54.8424 430.093C57.7147 426.861 61.6103 425.045 65.6724 425.045H814.974C819.036 425.045 822.932 426.861 825.804 430.093C828.677 433.326 830.29 437.71 830.29 442.281C830.29 446.852 828.677 451.237 825.804 454.469C822.932 457.701 819.036 459.517 814.974 459.517Z" fill="#CCCCCC"/>
<path d="M815.477 375.99H66.1758C62.1137 375.99 58.2181 374.174 55.3458 370.942C52.4735 367.709 50.8599 363.325 50.8599 358.754C50.8599 354.182 52.4735 349.798 55.3458 346.566C58.2181 343.334 62.1137 341.518 66.1758 341.518H815.477C819.539 341.518 823.435 343.334 826.307 346.566C829.18 349.798 830.793 354.182 830.793 358.754C830.793 363.325 829.18 367.709 826.307 370.942C823.435 374.174 819.539 375.99 815.477 375.99Z" fill="#CCCCCC"/>
<path d="M445.539 261.939H334.793C330.731 261.939 326.836 260.123 323.963 256.891C321.091 253.658 319.477 249.274 319.477 244.703C319.477 240.132 321.091 235.748 323.963 232.515C326.836 229.283 330.731 227.467 334.793 227.467H445.539C449.601 227.467 453.497 229.283 456.369 232.515C459.241 235.748 460.855 240.132 460.855 244.703C460.855 249.274 459.241 253.658 456.369 256.891C453.497 260.123 449.601 261.939 445.539 261.939Z" fill="#CCCCCC"/>
<path d="M815.477 177.111H334.793C330.731 177.111 326.836 175.295 323.963 172.063C321.091 168.83 319.477 164.446 319.477 159.875C319.477 155.304 321.091 150.919 323.963 147.687C326.836 144.455 330.731 142.639 334.793 142.639H815.477C819.539 142.639 823.435 144.455 826.307 147.687C829.18 150.919 830.793 155.304 830.793 159.875C830.793 164.446 829.18 168.83 826.307 172.063C823.435 175.295 819.539 177.111 815.477 177.111Z" fill="#CCCCCC"/>
<path d="M426.688 544.375H65.6724C61.6103 544.375 57.7147 542.559 54.8424 539.326C51.9701 536.094 50.3564 531.71 50.3564 527.139C50.3564 522.567 51.9701 518.183 54.8424 514.951C57.7147 511.718 61.6103 509.902 65.6724 509.902H426.688C430.751 509.902 434.646 511.718 437.518 514.951C440.391 518.183 442.004 522.567 442.004 527.139C442.004 531.71 440.391 536.094 437.518 539.326C434.646 542.559 430.751 544.375 426.688 544.375Z" fill="#CCCCCC"/>
</g>
</svg>
