<svg width="992" height="769" viewBox="0 0 992 769" fill="none" xmlns="http://www.w3.org/2000/svg">
<path d="M909.539 52.7598H73.0548C67.433 52.7693 62.044 55.2868 58.0688 59.7604C54.0936 64.2339 51.8566 70.2987 51.8481 76.6253V681.218C51.8566 687.545 54.0936 693.61 58.0688 698.083C62.044 702.557 67.433 705.074 73.0548 705.084H909.539C915.161 705.074 920.55 702.557 924.525 698.083C928.501 693.61 930.738 687.545 930.746 681.218V76.6253C930.738 70.2987 928.501 64.2339 924.525 59.7604C920.55 55.2868 915.161 52.7693 909.539 52.7598V52.7598ZM926.034 681.218C926.029 686.14 924.289 690.858 921.197 694.338C918.105 697.818 913.912 699.775 909.539 699.78H73.0548C68.6818 699.775 64.4893 697.818 61.3972 694.338C58.305 690.858 56.5656 686.14 56.5607 681.218V76.6253C56.5656 71.704 58.305 66.9859 61.3972 63.506C64.4893 60.0261 68.6818 58.0687 73.0548 58.0632H909.539C913.912 58.0687 918.105 60.0261 921.197 63.506C924.289 66.9859 926.029 71.704 926.034 76.6253V681.218Z" fill="#3F3D56"/>
<path d="M251.604 353.715H119.651C114.341 353.707 109.25 351.33 105.496 347.105C101.741 342.88 99.6289 337.151 99.6226 331.175V182.678C99.6289 176.703 101.741 170.974 105.496 166.748C109.25 162.523 114.341 160.146 119.651 160.139H251.604C256.913 160.146 262.004 162.523 265.759 166.748C269.514 170.974 271.626 176.703 271.632 182.678V331.175C271.626 337.151 269.514 342.88 265.759 347.105C262.004 351.33 256.913 353.707 251.604 353.715V353.715Z" fill="#CCCCCC"/>
<path d="M865.974 511.517H116.672C112.61 511.517 108.715 509.701 105.842 506.469C102.97 503.237 101.356 498.852 101.356 494.281C101.356 489.71 102.97 485.326 105.842 482.093C108.715 478.861 112.61 477.045 116.672 477.045H865.974C870.036 477.045 873.932 478.861 876.804 482.093C879.677 485.326 881.29 489.71 881.29 494.281C881.29 498.852 879.677 503.237 876.804 506.469C873.932 509.701 870.036 511.517 865.974 511.517V511.517Z" fill="#CCCCCC"/>
<path d="M866.477 427.99H117.176C113.114 427.99 109.218 426.174 106.346 422.942C103.474 419.709 101.86 415.325 101.86 410.754C101.86 406.182 103.474 401.798 106.346 398.566C109.218 395.334 113.114 393.518 117.176 393.518H866.477C870.539 393.518 874.435 395.334 877.307 398.566C880.18 401.798 881.793 406.182 881.793 410.754C881.793 415.325 880.18 419.709 877.307 422.942C874.435 426.174 870.539 427.99 866.477 427.99V427.99Z" fill="#CCCCCC"/>
<path d="M496.539 313.939H385.793C381.731 313.939 377.836 312.123 374.963 308.891C372.091 305.658 370.477 301.274 370.477 296.703C370.477 292.132 372.091 287.748 374.963 284.515C377.836 281.283 381.731 279.467 385.793 279.467H496.539C500.601 279.467 504.497 281.283 507.369 284.515C510.241 287.748 511.855 292.132 511.855 296.703C511.855 301.274 510.241 305.658 507.369 308.891C504.497 312.123 500.601 313.939 496.539 313.939V313.939Z" fill="#CCCCCC"/>
<path d="M866.477 229.111H385.793C381.731 229.111 377.836 227.295 374.963 224.063C372.091 220.83 370.477 216.446 370.477 211.875C370.477 207.304 372.091 202.919 374.963 199.687C377.836 196.455 381.731 194.639 385.793 194.639H866.477C870.539 194.639 874.435 196.455 877.307 199.687C880.18 202.919 881.793 207.304 881.793 211.875C881.793 216.446 880.18 220.83 877.307 224.063C874.435 227.295 870.539 229.111 866.477 229.111V229.111Z" fill="#CCCCCC"/>
<path d="M477.688 596.375H116.672C112.61 596.375 108.715 594.559 105.842 591.326C102.97 588.094 101.356 583.71 101.356 579.139C101.356 574.567 102.97 570.183 105.842 566.951C108.715 563.718 112.61 561.902 116.672 561.902H477.688C481.751 561.902 485.646 563.718 488.518 566.951C491.391 570.183 493.004 574.567 493.004 579.139C493.004 583.71 491.391 588.094 488.518 591.326C485.646 594.559 481.751 596.375 477.688 596.375V596.375Z" fill="#CCCCCC"/>
</svg>
