<svg width="100" height="100" viewBox="0 0 100 100" fill="none" xmlns="http://www.w3.org/2000/svg">
<g clip-path="url(#clip0)">
<path d="M50 100C77.6142 100 100 77.6142 100 50C100 22.3858 77.6142 0 50 0C22.3858 0 0 22.3858 0 50C0 77.6142 22.3858 100 50 100Z" fill="#F9880D"/>
<path d="M99.2811 60.123L66.5 27.5C66.5 27.5 35.7861 34 29 34L28.7531 76.4777L53.4469 99.5251C76.0877 98.1589 94.6621 81.7286 99.2811 60.123Z" fill="#030303" fill-opacity="0.13"/>
<path d="M53.7863 73.5393C50.8316 73.5395 47.8746 72.8189 45.158 71.374L44.9881 71.2836C38.8275 68.0068 34.9998 61.6484 35 54.6908V54.4109H46.3281V54.691C46.3279 57.451 47.8537 59.9768 50.3094 61.283L50.4793 61.3734C52.6283 62.5166 55.173 62.4756 57.2852 61.2641L57.5283 61.1246C58.9561 60.3059 59.8422 58.776 59.8422 57.1313C59.8422 55.0424 58.4338 53.2154 56.4154 52.683L48.7562 50.7457C44.6293 49.7018 41.1398 47.1231 38.9305 43.4842C36.7211 39.8453 36.0432 35.5596 37.0209 31.4164C38.7465 24.1057 45.1975 19 52.7088 19H53.9029C57.9775 19 61.8559 20.2906 65.118 22.7322C68.3803 25.174 70.7119 28.5311 71.8603 32.4406L72.0727 33.1629L61.2039 36.3564L60.9916 35.634C60.074 32.51 57.159 30.3281 53.9029 30.3281H52.7088C50.4762 30.3281 48.559 31.8457 48.0461 34.0186C47.4488 36.5486 49.0137 39.1258 51.534 39.7633L59.2529 41.7158C66.2695 43.5418 71.1701 49.8809 71.1701 57.1313C71.1701 62.8234 68.1027 68.1188 63.1652 70.9506L62.9223 71.09C60.0785 72.7213 56.934 73.5393 53.7863 73.5393V73.5393Z" fill="#F8FFFB"/>
<path d="M71.1713 57.131C71.1713 62.8244 68.1029 68.1193 63.1654 70.9514L62.9233 71.09C60.0795 72.7209 56.8356 73.5392 53.7865 73.5392C53.7025 73.5392 48.5 73.5 46 72C43.5 70.5 53 62 53 62C54.2891 62.0488 56.1205 61.9318 57.2846 61.2639L57.5287 61.1252C58.9565 60.3049 59.8432 58.7756 59.8432 57.131C59.8432 55.0431 58.433 53.215 56.4154 52.6838L53.5365 51.9553V40.2697L59.2533 41.715C66.2689 43.5412 71.1713 49.881 71.1713 57.131Z" fill="#D8D8D8"/>
<path d="M53.9037 30.5C53.9037 30.5 52 30.5 49.5 31.5C47 32.5 40 27 40.5 24.5C41 22 43 20.9998 46 20C49 19.0002 53.9037 19.0002 53.9037 19.0002C57.9779 19.0002 61.8568 20.2912 65.1186 22.7326C68.3803 25.174 70.7123 28.5314 71.8607 32.4416L72.0736 33.1623L61.2045 36.3556L60.9916 35.6349C60.0736 32.5099 57 31.1717 53.9037 30.5Z" fill="#D8D8D8"/>
<path d="M31.9967 76.7143H8V23.0006H31.9967C44.3486 23.0006 54.3976 33.0498 54.3976 45.4018V54.3131C54.3976 66.6651 44.3486 76.7143 31.9967 76.7143ZM19.3281 65.3862H31.9967C38.1023 65.3862 43.0695 60.4188 43.0695 54.3131V45.4018C43.0695 39.2961 38.1021 34.3287 31.9967 34.3287H19.3281V65.3862Z" fill="#F8FFFB"/>
<path d="M31.9957 23H29.6363V34.3281H31.9957C38.1031 34.3281 43.0699 39.2969 43.0699 45.4023V54.3125C43.0699 60.418 38.1031 65.3867 31.9957 65.3867H29.6363V76.7148H31.9957C44.3492 76.7148 54.398 66.666 54.398 54.3125V45.4023C54.398 33.0488 44.3492 23 31.9957 23Z" fill="#D8D8D8"/>
</g>
<defs>
<clipPath id="clip0">
<rect width="100" height="100" fill="white"/>
</clipPath>
</defs>
</svg>
