<svg width="234" height="678" viewBox="0 0 234 678" fill="none" xmlns="http://www.w3.org/2000/svg">
<path d="M42.7016 178C42.7016 178 45.3009 213.091 45.3009 214.391C45.3009 215.69 27.1056 305.367 27.1056 305.367C27.1056 305.367 1.11222 354.755 27.1056 353.455C53.0989 352.155 45.3009 306.667 45.3009 306.667L72.5939 231.286L60.8969 178L42.7016 178Z" fill="#A0616A"/>
<path d="M171.369 585.501L175.268 614.094L147.975 616.693L151.874 581.602L171.369 585.501Z" fill="#A0616A"/>
<path d="M85.5909 585.501L81.6919 614.094L108.985 616.693L105.086 581.602L85.5909 585.501Z" fill="#A0616A"/>
<path d="M55.698 317.768L49.1997 326.866C49.1997 326.866 45.3007 365.856 49.1997 378.852C53.0987 391.849 60.8967 451.634 60.8967 455.533C60.8967 459.432 62.1964 462.031 60.8967 463.331C59.597 464.63 55.698 464.63 58.2973 467.23C60.8967 469.829 60.8967 477.627 60.8967 477.627V484.125L77.7924 580.301C77.7924 580.301 67.395 591.998 75.193 591.998C82.991 591.998 111.584 591.998 110.284 579.001L107.685 577.701C107.685 577.701 103.786 491.923 105.085 488.024C106.385 484.125 105.085 476.327 105.085 476.327C105.085 476.327 102.486 472.428 105.085 471.129C107.685 469.829 107.685 459.432 107.685 459.432L119.382 380.152C119.382 380.152 129.779 433.438 136.277 438.637C142.776 443.836 141.476 456.832 141.476 456.832L146.675 571.203C146.675 571.203 141.476 584.2 146.675 586.799C151.873 589.398 173.968 598.496 175.267 585.499C176.567 572.503 183.065 459.432 183.065 454.233C183.065 449.034 181.766 446.435 183.065 442.536C184.365 438.637 181.766 438.637 183.065 438.637C184.365 438.637 180.466 434.738 180.466 432.139V368.455C180.466 368.455 181.766 355.458 183.065 352.859C184.365 350.26 181.766 347.66 183.065 343.761C184.365 339.862 180.466 326.866 180.466 326.866L121.981 311.27L55.698 317.768Z" fill="#2F2E41"/>
<path d="M101.187 608.895C101.187 608.895 107.685 602.396 98.5872 602.396C92.7465 602.516 86.9938 603.843 81.6915 606.295L75.1931 629.689C75.1931 629.689 48.55 651.134 78.4423 648.535C108.335 645.935 103.786 647.885 103.786 647.885C103.786 647.885 112.884 645.285 114.183 642.686C115.483 640.087 111.584 602.396 111.584 602.396C111.584 602.396 107.685 612.794 101.187 608.895Z" fill="#2F2E41"/>
<path d="M157.072 608.895C157.072 608.895 150.574 602.397 159.672 602.397C165.512 602.516 171.265 603.843 176.567 606.296L183.066 629.69C183.066 629.69 209.709 651.134 179.817 648.535C149.924 645.935 150.574 647.885 150.574 647.885C150.574 647.885 141.476 645.286 140.177 642.686C138.877 640.087 146.675 602.396 146.675 602.396C146.675 602.396 150.574 612.794 157.072 608.895Z" fill="#2F2E41"/>
<path d="M72.5939 90.3269C91.2563 90.3269 106.385 75.198 106.385 56.5355C106.385 37.873 91.2563 22.7441 72.5939 22.7441C53.9314 22.7441 38.8025 37.873 38.8025 56.5355C38.8025 75.198 53.9314 90.3269 72.5939 90.3269Z" fill="#A0616A"/>
<path d="M60.897 81.2291C60.897 81.2291 66.0956 107.222 66.0956 111.121C66.0956 115.02 88.19 126.717 88.19 126.717L112.884 95.5254C112.884 95.5254 97.2877 73.4311 97.2877 68.2324L60.897 81.2291Z" fill="#A0616A"/>
<path d="M80.3918 115.02C80.3918 115.02 69.0643 112.005 65.6304 107.014C65.6304 107.014 29.7048 142.313 29.7048 148.812L58.2975 199.499C58.2975 199.499 58.2975 217.694 60.8969 218.994C63.4962 220.293 60.8969 218.994 60.8969 224.192C60.8969 229.391 53.0989 263.182 55.6982 268.381C58.2975 273.58 60.8969 269.681 58.2975 277.479C55.6982 285.277 49.1998 326.866 49.1998 326.866C49.1998 326.866 72.5939 319.068 106.385 332.065C140.177 345.061 180.466 326.866 180.466 326.866C180.466 326.866 170.069 303.472 172.668 295.674C175.268 287.876 166.17 273.58 166.17 273.58L159.672 154.01C159.672 154.01 168.769 100.724 162.271 98.1246L149.274 92.9259L107.654 87.8105C107.654 87.8105 97.2875 113.721 80.3918 115.02Z" fill="#D0CDE1"/>
<path d="M42.7015 139.715L29.7048 148.813C29.7048 148.813 23.2065 168.308 29.7048 177.405C36.2031 186.503 38.8025 199.5 38.8025 199.5L64.7958 196.9L42.7015 139.715Z" fill="#D0CDE1"/>
<path d="M46.7942 20.8239L40.9327 18.4772C40.9327 18.4772 53.1885 4.98422 70.2403 6.15755L65.4444 0.877609C65.4444 0.877609 77.1675 -3.81557 87.8248 8.5041C93.4271 14.9803 99.9091 22.5927 103.95 31.168H110.227L107.607 36.9368L116.777 42.7055L107.365 41.6693C108.257 46.6496 107.952 51.7705 106.475 56.6097L106.727 61.1693C106.727 61.1693 95.8177 44.2899 95.8177 41.9433V47.8098C95.8177 47.8098 89.9562 42.53 89.9562 39.0101L86.759 43.1167L85.1604 36.6635L65.4444 43.1167L68.6416 37.8368L56.3857 39.5968L61.1816 33.1436C61.1816 33.1436 47.3272 40.7701 46.7942 47.2233C46.2614 53.6764 39.3342 61.8896 39.3342 61.8896L36.1371 56.0231C36.1371 56.0231 31.3411 29.6236 46.7942 20.8239Z" fill="#2F2E41"/>
<path d="M138.877 151.412C138.877 151.412 131.351 170.765 132.923 189.913C133.21 193.341 134.365 196.64 136.278 199.5L44.0733 243.274C44.0733 243.274 2.41172 247.587 12.8091 265.783C23.2064 283.978 60.8968 256.685 60.8968 256.685C60.8968 256.685 159.672 242.389 167.47 228.092C175.268 213.796 180.466 154.011 180.466 154.011L138.877 151.412Z" fill="#A0616A"/>
<path d="M142.776 98.125H162.271C162.271 98.125 176.567 100.724 180.466 126.718C184.365 152.711 188.264 159.209 184.365 159.209C180.466 159.209 133.678 157.91 133.678 156.61C133.678 155.31 142.776 98.125 142.776 98.125Z" fill="#D0CDE1"/>
</svg>
