<svg xmlns="http://www.w3.org/2000/svg" xmlns:cc="http://creativecommons.org/ns#" xmlns:dc="http://purl.org/dc/elements/1.1/" xmlns:rdf="http://www.w3.org/1999/02/22-rdf-syntax-ns#" version="1.1" viewBox="0 0 100 125" xml:space="preserve" x="0px" y="0px"><path d="m9.7949 5.8652c-2.2768 0-4.1289 1.8521-4.1289 4.1289v18.66c0 2.2768 1.8521 4.1266 4.1289 4.125h42.162c0.093416-0.02057 0.20151-0.032145 0.29492-0.052735 1.0355-0.22325 2.0982-0.42154 3.1875-0.5957 0.10925-0.01583 0.21888-0.034941 0.32812-0.050781 3.7383-0.58108 7.7234-0.88086 11.648-0.88086s7.9141 0.29977 11.652 0.88086c0.10608 0.01583 0.21228 0.034941 0.31836 0.050781 1.0925 0.17417 2.1625 0.37477 3.2012 0.59961 0.091832 0.02057 0.19332 0.032144 0.28516 0.052734h7.332c2.2768 0 4.1289-1.8521 4.1289-4.1289v-18.66c0-2.2768-1.8544-4.1289-4.1328-4.1289h-80.406zm9.3301 6.334c3.9282 0 7.125 3.1968 7.125 7.125s-3.1968 7.125-7.125 7.125-7.125-3.1968-7.125-7.125 3.1968-7.125 7.125-7.125zm0 3.166c-2.1818 0-3.959 1.7756-3.959 3.959 0 2.1834 1.7772 3.959 3.959 3.959 2.1818 0 3.959-1.7756 3.959-3.959 0-2.1834-1.7772-3.959-3.959-3.959zm37.209 0a1.5833 1.5833 0 0 1 1.582 1.584 1.5833 1.5833 0 0 1-1.582 1.584 1.5833 1.5833 0 0 1-1.584-1.584 1.5833 1.5833 0 0 1 1.584-1.584zm6.332 0a1.5833 1.5833 0 0 1 1.584 1.584 1.5833 1.5833 0 0 1-1.584 1.584 1.5833 1.5833 0 0 1-1.582-1.584 1.5833 1.5833 0 0 1 1.582-1.584zm6.334 0a1.5833 1.5833 0 0 1 1.584 1.584 1.5833 1.5833 0 0 1-1.584 1.584 1.5833 1.5833 0 0 1-1.584-1.584 1.5833 1.5833 0 0 1 1.584-1.584zm6.334 0a1.5833 1.5833 0 0 1 1.582 1.584 1.5833 1.5833 0 0 1-1.582 1.584 1.5833 1.5833 0 0 1-1.584-1.584 1.5833 1.5833 0 0 1 1.584-1.584zm6.332 0a1.5833 1.5833 0 0 1 1.584 1.584 1.5833 1.5833 0 0 1-1.584 1.584 1.5833 1.5833 0 0 1-1.582-1.584 1.5833 1.5833 0 0 1 1.582-1.584zm-22.166 4.75a1.5833 1.5833 0 0 1 1.584 1.584 1.5833 1.5833 0 0 1-1.584 1.584 1.5833 1.5833 0 0 1-1.584-1.584 1.5833 1.5833 0 0 1 1.584-1.584zm6.334 0a1.5833 1.5833 0 0 1 1.582 1.584 1.5833 1.5833 0 0 1-1.582 1.584 1.5833 1.5833 0 0 1-1.584-1.584 1.5833 1.5833 0 0 1 1.584-1.584zm6.332 0a1.5833 1.5833 0 0 1 1.584 1.584 1.5833 1.5833 0 0 1-1.584 1.584 1.5833 1.5833 0 0 1-1.582-1.584 1.5833 1.5833 0 0 1 1.582-1.584zm6.334 0a1.5833 1.5833 0 0 1 1.584 1.584 1.5833 1.5833 0 0 1-1.584 1.584 1.5833 1.5833 0 0 1-1.584-1.584 1.5833 1.5833 0 0 1 1.584-1.584zm6.334 0a1.5833 1.5833 0 0 1 1.582 1.584 1.5833 1.5833 0 0 1-1.582 1.584 1.5833 1.5833 0 0 1-1.584-1.584 1.5833 1.5833 0 0 1 1.584-1.584zm-17.42 14.285c-3.8396 0-7.6823 0.27211-11.227 0.81836-0.22008 0.034826-0.43152 0.072965-0.64844 0.10938-0.817 0.13617-1.61 0.29236-2.3906 0.45703-2.4953 0.532-4.7129 1.181-6.5527 1.9141-0.08075 0.03167-0.16069 0.066359-0.23828 0.099609-0.399 0.16308-0.77218 0.33058-1.1348 0.5-0.31192 0.14883-0.60842 0.30113-0.88867 0.45312-0.071243 0.037997-0.14323 0.075281-0.21289 0.11328-1.6356 0.91358-2.6954 1.8599-3.2227 2.7402l-0.015626 0.027343c-0.12667 0.21533-0.21205 0.42466-0.27539 0.62891-0.058576 0.20583-0.10742 0.41257-0.10742 0.61523 0 4.0169 11.51 8.5098 26.916 8.5098 15.404 0 26.918-4.4928 26.918-8.5098 0-2.6268-4.9414-5.4502-12.66-7.0938-0.77425-0.16467-1.5667-0.31854-2.3789-0.45312-0.22008-0.036414-0.43496-0.076488-0.6582-0.11133-3.5443-0.54625-7.3831-0.81836-11.223-0.81836zm-57.619 1.5488c-2.2768 0-4.1289 1.8521-4.1289 4.1289v18.66c0 2.2768 1.8521 4.127 4.1289 4.127h27.539v-5.1445-0.59375-0.59375-13.656-0.59375c0-0.2375 0.056981-0.45554 0.15039-0.6582 0.53042-2.2404 2.4775-4.1384 5.3418-5.6758h-33.031zm9.3301 6.334c3.9282 0 7.125 3.1968 7.125 7.125s-3.1968 7.125-7.125 7.125-7.125-3.1968-7.125-7.125 3.1968-7.125 7.125-7.125zm0 3.166c-2.1818 0-3.959 1.7756-3.959 3.959s1.7772 3.957 3.959 3.957c2.1818 0 3.959-1.7736 3.959-3.957 0-2.1834-1.7772-3.959-3.959-3.959zm21.375 2.873v7.8574c0.04588 0.19792 0.066453 0.40354 0.033203 0.60937-0.01897 0.11083-0.033203 0.22547-0.033203 0.33789 0 0.171 0.05099 0.34267 0.09375 0.51367 0.034833 0.1425 0.076922 0.2856 0.13867 0.42969 0.049075 0.114 0.10696 0.22743 0.17188 0.33984 0.07125 0.12667 0.15194 0.25187 0.24219 0.37695 0.11717 0.15833 0.2496 0.31432 0.39844 0.47266 0.063334 0.069666 0.12956 0.13737 0.19922 0.20703 3.3582 3.2411 13.245 6.168 25.676 6.168 12.439 0 22.328-2.9273 25.68-6.1699 0.063341-0.063338 0.12305-0.12807 0.18164-0.19141 0.15675-0.16467 0.2941-0.32752 0.41602-0.49219 0.085503-0.11875 0.16042-0.24062 0.22852-0.35938 0.069658-0.11875 0.13098-0.23867 0.18164-0.35742 0.056999-0.13617 0.099562-0.27594 0.13281-0.41211 0.04275-0.17575 0.09375-0.35122 0.09375-0.52539 0-0.11717-0.014919-0.23208-0.037109-0.34766-0.03009-0.18842-0.008703-0.37493 0.029297-0.55859v-7.8984c-0.019 0.01425-0.039594 0.028718-0.058594 0.042968-0.2945 0.22483-0.60584 0.44408-0.93359 0.65625-0.071254 0.047501-0.14591 0.090809-0.21875 0.13672-0.28025 0.17575-0.56831 0.34547-0.86914 0.51172-0.0855 0.047508-0.17111 0.095078-0.25977 0.14258-0.3705 0.19792-0.75139 0.39092-1.1504 0.57617-0.063328 0.03009-0.1304 0.059754-0.19531 0.089844-0.34992 0.15992-0.70762 0.31248-1.0781 0.46289-0.10767 0.044332-0.21729 0.08811-0.32812 0.13086-0.43542 0.171-0.88105 0.33813-1.3418 0.49805-0.02531 0.00955-0.048879 0.015538-0.074219 0.023438-0.44017 0.15042-0.89472 0.29426-1.3555 0.43359-0.1235 0.038004-0.24992 0.074918-0.375 0.11133-0.456 0.13458-0.91721 0.2648-1.3906 0.38672-0.038004 0.0095-0.073329 0.02175-0.11133 0.03125-0.50984 0.13142-1.0353 0.25234-1.5625 0.37109-0.133 0.0285-0.26385 0.055848-0.39844 0.085938-0.45125 0.098166-0.90913 0.19259-1.373 0.28125-0.091834 0.01741-0.18198 0.035324-0.27539 0.052734-0.54308 0.10133-1.0927 0.1965-1.6484 0.28516-0.13142 0.02216-0.26544 0.039957-0.39844 0.060547-0.46075 0.07125-0.92354 0.13747-1.3906 0.19922-0.12825 0.01741-0.25847 0.036895-0.38672 0.052734-0.56683 0.072834-1.1362 0.13711-1.7109 0.19727-0.11558 0.01107-0.23402 0.022113-0.34961 0.033203-0.48292 0.0475-0.96546 0.09286-1.4531 0.13086-0.14725 0.01266-0.29416 0.022113-0.44141 0.033203-0.58108 0.042755-1.1638 0.081238-1.748 0.11133-0.083917 0.0047-0.16609 0.004965-0.25 0.009766-0.51617 0.02534-1.0346 0.044343-1.5508 0.058593-0.15675 0.00475-0.31163 0.008619-0.4668 0.011719-0.59058 0.01271-1.1786 0.025391-1.7676 0.025391-0.589 0-1.1789-0.012731-1.7695-0.025391-0.15675-0.00315-0.31163-0.006919-0.4668-0.011719-0.51617-0.01425-1.0342-0.033254-1.5488-0.058593-0.083916-0.0047-0.16961-0.005066-0.25195-0.009766-0.58425-0.030085-1.165-0.068578-1.7461-0.11133-0.14725-0.01109-0.29611-0.022113-0.44336-0.033203-0.48608-0.03958-0.97021-0.08336-1.4531-0.13086-0.11558-0.01107-0.23403-0.020543-0.34961-0.033203-0.57475-0.060167-1.1422-0.12602-1.709-0.19727-0.12983-0.015819-0.25847-0.035324-0.38672-0.052734-0.46866-0.06175-0.93183-0.12797-1.3926-0.19922-0.13142-0.02058-0.26702-0.039957-0.39844-0.060547-0.55575-0.088666-1.1054-0.18382-1.6484-0.28516-0.091833-0.01741-0.18355-0.035324-0.27539-0.052734-0.46233-0.088667-0.92021-0.18308-1.373-0.28125-0.133-0.0285-0.26544-0.055848-0.39844-0.085938-0.52883-0.11875-1.0527-0.23968-1.5625-0.37109-0.038004-0.0095-0.073328-0.02175-0.11133-0.03125-0.47342-0.1235-0.93462-0.25372-1.3906-0.38672-0.12508-0.036414-0.2515-0.073328-0.375-0.11133-0.46075-0.13933-0.91335-0.28318-1.3535-0.43359-0.02533-0.00955-0.048879-0.015538-0.074219-0.023438-0.46075-0.15833-0.9048-0.32705-1.3418-0.49805-0.10925-0.042742-0.21888-0.08652-0.32812-0.13086-0.3705-0.15042-0.73016-0.30297-1.0801-0.46289-0.063328-0.0285-0.13002-0.059754-0.19336-0.089844-0.399-0.18525-0.78147-0.37826-1.1504-0.57617-0.087083-0.045918-0.17268-0.095078-0.25977-0.14258-0.30242-0.16783-0.59047-0.33755-0.86914-0.51172-0.072837-0.045911-0.14945-0.090809-0.2207-0.13672-0.32775-0.21375-0.64068-0.43337-0.93359-0.6582-0.019-0.01425-0.039594-0.026765-0.058594-0.041015zm0 14.25v0.29297l0.009766 7.7695c0.01424 0.13458 0.043644 0.26813 0.021484 0.4043-0.01115 0.071243-0.013131 0.14164-0.019531 0.21289v0.19336c0.00475 0.14883 0.041715 0.29648 0.078125 0.44531 0.034833 0.1425 0.076922 0.2856 0.13867 0.42969 0.04908 0.114 0.11087 0.22743 0.17578 0.33984 0.07125 0.12667 0.14803 0.25187 0.23828 0.37695 0.11717 0.15833 0.25351 0.31432 0.40234 0.47266 0.063328 0.069666 0.12565 0.13737 0.19531 0.20703 3.3582 3.2411 13.245 6.168 25.676 6.168 12.439 0 22.332-2.9273 25.684-6.1699 0.063335-0.063339 0.1211-0.12807 0.17969-0.19141 0.15675-0.16467 0.2941-0.32752 0.41602-0.49219 0.085497-0.11875 0.15847-0.24062 0.22656-0.35938 0.069663-0.11875 0.13489-0.23867 0.18555-0.35742 0.058579-0.13617 0.097972-0.27594 0.13281-0.41211 0.04275-0.17575 0.09375-0.35122 0.09375-0.52539 0-0.11717-0.01549-0.23207-0.03125-0.34766-0.03009-0.18842-0.004796-0.37493 0.033204-0.55859v-7.8984c-0.06966 0.053834-0.15141 0.10205-0.22266 0.1543-0.19792 0.14883-0.40734 0.29695-0.62109 0.43945-0.17258 0.11558-0.35307 0.22743-0.53516 0.33984-3.3519 2.0678-8.2598 3.5422-13.746 4.4004-0.02375 0.0031-0.046563 0.006666-0.070313 0.009766-1.634 0.25333-3.3127 0.45357-5.0195 0.59766-0.35467 0.03008-0.7082 0.060597-1.0645 0.085937s-0.71053 0.04777-1.0684 0.06836c-0.47342 0.02692-0.94883 0.049359-1.4238 0.068359-0.28183 0.01108-0.56192 0.021397-0.84375 0.029297-0.76792 0.02223-1.5344 0.037109-2.3008 0.037109-0.76792 0-1.5395-0.014949-2.3105-0.037109-0.28025-0.0079-0.55922-0.022113-0.83789-0.033203-0.47817-0.019-0.95738-0.041449-1.4355-0.06836-0.35467-0.018999-0.70746-0.043019-1.0605-0.068359-0.36258-0.02533-0.71871-0.055847-1.0781-0.085937-1.691-0.14408-3.3529-0.33809-4.9727-0.58984-0.037997-0.00636-0.077234-0.013131-0.11523-0.019531-5.0208-0.78692-9.5604-2.0865-12.863-3.8867-0.0015-0.0016-0.006666-0.002306-0.009766-0.003906-0.304-0.16625-0.58963-0.33951-0.87305-0.51367-0.18367-0.114-0.36294-0.22621-0.53711-0.3418-0.21375-0.14408-0.42159-0.29062-0.62109-0.43945-0.066494-0.047506-0.14174-0.093488-0.20508-0.14258zm-30.705 3.4609c-2.2768 0-4.1289 1.8521-4.1289 4.1289v18.658c0 2.2768 1.8521 4.1289 4.1289 4.1289v0.003906h33.797c-0.71092-0.34992-1.3666-0.7222-1.9746-1.1133-0.03009-0.019-0.061344-0.037641-0.089844-0.056641-0.84075-0.54783-1.5674-1.1343-2.1738-1.7598-0.10608-0.10925-0.20652-0.21925-0.30469-0.33008-0.19317-0.22008-0.37561-0.44229-0.53711-0.67188-0.16308-0.228-0.30962-0.45707-0.43945-0.69141-0.063336-0.11717-0.12428-0.23476-0.17969-0.35352-0.0285-0.058575-0.064504-0.11524-0.089844-0.17383h-0.46875v-1.582-14.25-0.59375-0.59375-4.75h-27.539zm9.3301 6.332c3.9282 0 7.125 3.1968 7.125 7.125s-3.1968 7.125-7.125 7.125-7.125-3.1968-7.125-7.125 3.1968-7.125 7.125-7.125zm0 3.168c-2.1818 0-3.959 1.7736-3.959 3.957 0 2.1834 1.7772 3.959 3.959 3.959 2.1818 0 3.959-1.7756 3.959-3.959 0-2.1834-1.7772-3.957-3.959-3.957zm75.209 1.293c-0.069658 0.053834-0.15141 0.10205-0.22266 0.1543-0.19792 0.14883-0.40539 0.29305-0.61914 0.43555-0.17258 0.11558-0.35307 0.22743-0.53516 0.33984-3.3519 2.0678-8.2598 3.5422-13.746 4.4004-0.02375 0.00315-0.050469 0.010572-0.074219 0.013672-1.634 0.25333-3.3127 0.45162-5.0195 0.5957-0.35467 0.03007-0.7043 0.058644-1.0605 0.083984s-0.71053 0.04777-1.0684 0.06836c-0.47342 0.02692-0.94883 0.049359-1.4238 0.068359-0.28183 0.01107-0.56192 0.025303-0.84375 0.033203-0.76792 0.02223-1.5384 0.03711-2.3047 0.03711-0.76792 0-1.5356-0.018856-2.3066-0.041016-0.28025-0.00791-0.55922-0.018207-0.83789-0.029297-0.47817-0.019-0.95738-0.045355-1.4355-0.072266-0.35467-0.018999-0.70746-0.039113-1.0605-0.064453-0.36258-0.02533-0.71871-0.055847-1.0781-0.085937-1.691-0.14408-3.3568-0.342-4.9766-0.59375-0.038005-0.00631-0.073328-0.009225-0.11133-0.015625-5.0208-0.78692-9.5604-2.0884-12.863-3.8887-0.0015-0.0016-0.006666-0.004259-0.009766-0.005859-0.304-0.16625-0.58963-0.33951-0.87305-0.51367-0.18367-0.114-0.36294-0.22621-0.53711-0.3418-0.21375-0.14408-0.42159-0.29062-0.62109-0.43945-0.058578-0.044331-0.12855-0.08652-0.18555-0.13086l0.011719 9.1289c0.031667 0.19633 0.10907 0.39388 0.19141 0.5918 0.042749 0.095 0.083262 0.19284 0.13867 0.29102 0 0.0032 0.002306 0.00426 0.003906 0.005859 1.2192 2.1217 5.5753 4.6351 13.449 6.125v0.013672c3.8016 0.71408 8.2265 1.1465 13.102 1.1465 15.279 0 26.239-4.2266 26.887-8.1738 0.00791-0.049088 0.01859-0.099348 0.03125-0.14844v-8.9883z"/><text x="0" y="115" fill="#000000" font-size="5px" font-weight="bold" font-family="'Helvetica Neue', Helvetica, Arial-Unicode, Arial, Sans-serif">Created by mardjoe</text><text x="0" y="120" fill="#000000" font-size="5px" font-weight="bold" font-family="'Helvetica Neue', Helvetica, Arial-Unicode, Arial, Sans-serif">from the Noun Project</text></svg>