<svg width="595" height="1000" viewBox="0 0 595 1000" fill="none" xmlns="http://www.w3.org/2000/svg">
<g opacity="0.8">
<path d="M572.868 58.4071V192.92H571.166V191.487H1.70243V192.92H0V58.4071C0.00731056 42.9212 2.96914 28.074 8.23548 17.1238C13.5018 6.17366 20.6424 0.0152007 28.0901 0H544.778C552.226 0.0152007 559.367 6.17366 564.633 17.1238C569.899 28.074 572.861 42.9212 572.868 58.4071V58.4071Z" fill="#6C63FF"/>
<path d="M544.778 0H28.0901C20.6424 0.0152007 13.5018 6.17366 8.23548 17.1238C2.96914 28.074 0.00731056 42.9212 0 58.4071V826.549C0.00731056 842.035 2.96914 856.882 8.23548 867.832C13.5018 878.782 20.6424 884.941 28.0901 884.956H544.778C552.226 884.941 559.367 878.782 564.633 867.832C569.899 856.882 572.861 842.035 572.868 826.549V58.4071C572.861 42.9212 569.899 28.074 564.633 17.1238C559.367 6.17366 552.226 0.0152007 544.778 0V0ZM571.166 826.549C571.157 841.095 568.374 855.04 563.427 865.325C558.481 875.611 551.774 881.397 544.778 881.416H28.0901C21.0944 881.397 14.3878 875.611 9.44106 865.325C4.49434 855.04 1.71136 841.095 1.70243 826.549V58.4071C1.71136 43.8611 4.49434 29.9162 9.44106 19.6306C14.3878 9.345 21.0944 3.55838 28.0901 3.53982H544.778C551.774 3.55839 558.481 9.345 563.427 19.6306C568.374 29.9162 571.157 43.8611 571.166 58.4071V826.549Z" fill="#3F3D56"/>
<path d="M115.765 131.859C125.168 131.859 132.79 116.011 132.79 96.4607C132.79 76.9108 125.168 61.0625 115.765 61.0625C106.363 61.0625 98.741 76.9108 98.741 96.4607C98.741 116.011 106.363 131.859 115.765 131.859Z" fill="white"/>
<path d="M457.103 131.859C466.505 131.859 474.127 116.011 474.127 96.4607C474.127 76.9108 466.505 61.0625 457.103 61.0625C447.701 61.0625 440.079 76.9108 440.079 96.4607C440.079 116.011 447.701 131.859 457.103 131.859Z" fill="white"/>
<path d="M164.953 491.154H63.6782C59.3877 491.144 55.2744 487.596 52.2406 481.287C49.2067 474.979 47.5002 466.427 47.4954 457.505V357.979C47.5002 349.058 49.2067 340.505 52.2406 334.197C55.2744 327.889 59.3877 324.34 63.6782 324.33H164.953C169.243 324.34 173.356 327.889 176.39 334.197C179.424 340.505 181.131 349.058 181.136 357.979V457.505C181.131 466.427 179.424 474.979 176.39 481.287C173.356 487.596 169.243 491.144 164.953 491.154V491.154Z" fill="#6C63FF"/>
<path d="M337.238 491.154H235.963C231.673 491.144 227.559 487.596 224.525 481.287C221.492 474.979 219.785 466.427 219.78 457.505V357.979C219.785 349.058 221.492 340.505 224.525 334.197C227.559 327.889 231.673 324.34 235.963 324.33H337.238C341.528 324.34 345.641 327.889 348.675 334.197C351.709 340.505 353.416 349.058 353.42 357.979V457.505C353.416 466.427 351.709 474.979 348.675 481.287C345.641 487.596 341.528 491.144 337.238 491.154V491.154Z" fill="#6C63FF"/>
<path d="M337.237 748.306H235.963C231.543 748.295 227.305 744.64 224.179 738.14C221.053 731.641 219.295 722.829 219.29 713.637V614.11C219.295 604.918 221.053 596.106 224.179 589.607C227.305 583.108 231.543 579.452 235.963 579.441H337.237C341.658 579.452 345.896 583.108 349.022 589.607C352.148 596.106 353.906 604.918 353.911 614.11V713.637C353.906 722.829 352.148 731.641 349.022 738.14C345.896 744.639 341.658 748.295 337.237 748.306V748.306Z" fill="#F2F2F2"/>
<path d="M164.621 748.306H63.3461C58.9256 748.295 54.6876 744.639 51.5618 738.14C48.4361 731.641 46.6778 722.829 46.6729 713.637V614.11C46.6778 604.918 48.4361 596.106 51.5618 589.607C54.6876 583.108 58.9256 579.452 63.3461 579.441H164.621C169.041 579.452 173.279 583.108 176.405 589.607C179.531 596.106 181.289 604.918 181.294 614.11V713.637C181.289 722.829 179.531 731.641 176.405 738.14C173.279 744.639 169.041 748.295 164.621 748.306V748.306Z" fill="#F2F2F2"/>
<path d="M509.522 748.306H408.248C403.827 748.295 399.589 744.639 396.464 738.14C393.338 731.641 391.58 722.829 391.575 713.637V614.11C391.58 604.918 393.338 596.106 396.464 589.607C399.589 583.108 403.827 579.452 408.248 579.441H509.522C513.943 579.452 518.181 583.108 521.307 589.607C524.432 596.106 526.191 604.918 526.196 614.11V713.637C526.191 722.829 524.432 731.641 521.307 738.14C518.181 744.639 513.943 748.295 509.522 748.306V748.306Z" fill="#F2F2F2"/>
<path d="M509.522 491.354H408.248C403.827 491.344 399.589 487.688 396.464 481.189C393.338 474.69 391.58 465.878 391.575 456.686V357.158C391.58 347.967 393.338 339.155 396.464 332.656C399.589 326.156 403.827 322.501 408.248 322.49H509.522C513.943 322.501 518.181 326.156 521.307 332.656C524.432 339.155 526.191 347.967 526.196 357.158V456.686C526.191 465.878 524.432 474.69 521.307 481.189C518.181 487.688 513.943 491.344 509.522 491.354Z" fill="#F2F2F2"/>
<path d="M114.315 464.844C129.482 464.844 141.777 439.279 141.777 407.743C141.777 376.207 129.482 350.643 114.315 350.643C99.1486 350.643 86.8535 376.207 86.8535 407.743C86.8535 439.279 99.1486 464.844 114.315 464.844Z" fill="white"/>
<path d="M111.593 429.525C110.975 429.527 110.374 429.112 109.88 428.341L109.849 428.293L103.395 418.019C103.096 417.543 102.845 416.949 102.656 416.272C102.467 415.594 102.344 414.845 102.295 414.068C102.245 413.292 102.269 412.503 102.367 411.746C102.464 410.989 102.632 410.279 102.861 409.657C103.09 409.035 103.376 408.514 103.702 408.122C104.028 407.73 104.388 407.475 104.762 407.373C105.135 407.27 105.515 407.322 105.879 407.525C106.243 407.727 106.584 408.077 106.883 408.554L111.063 415.219L120.942 388.432C121.171 387.811 121.456 387.289 121.782 386.897C122.108 386.506 122.468 386.251 122.842 386.149C123.215 386.046 123.594 386.098 123.958 386.3C124.322 386.503 124.663 386.852 124.962 387.328L124.9 387.502L124.963 387.331C125.566 388.294 125.96 389.715 126.06 391.282C126.159 392.849 125.956 394.434 125.494 395.69L113.874 427.198C113.606 427.924 113.26 428.512 112.864 428.915C112.469 429.319 112.034 429.527 111.593 429.525V429.525Z" fill="#6C63FF"/>
<path d="M287.091 464.021C302.257 464.021 314.553 438.457 314.553 406.921C314.553 375.385 302.257 349.82 287.091 349.82C271.924 349.82 259.629 375.385 259.629 406.921C259.629 438.457 271.924 464.021 287.091 464.021Z" fill="white"/>
<path d="M284.369 428.704C283.751 428.707 283.149 428.291 282.655 427.521L282.624 427.473L276.171 417.199C275.567 416.237 275.172 414.816 275.072 413.249C274.972 411.681 275.176 410.096 275.638 408.841C276.101 407.585 276.784 406.764 277.538 406.556C278.292 406.349 279.055 406.772 279.658 407.734L283.838 414.399L293.717 387.611C293.946 386.99 294.232 386.469 294.558 386.077C294.884 385.685 295.244 385.431 295.617 385.329C295.99 385.226 296.37 385.278 296.733 385.48C297.097 385.682 297.438 386.032 297.737 386.508L297.676 386.682L297.739 386.511C298.341 387.474 298.736 388.895 298.835 390.462C298.935 392.029 298.731 393.614 298.269 394.869L286.65 426.378C286.381 427.104 286.035 427.691 285.64 428.095C285.244 428.498 284.809 428.707 284.369 428.704V428.704Z" fill="#6C63FF"/>
<path d="M472.691 676.371C473.593 674.32 474.268 671.882 474.668 669.23C475.068 666.578 475.183 663.775 475.006 661.02C474.829 658.265 474.364 655.624 473.642 653.283C472.921 650.943 471.962 648.959 470.833 647.473L455.501 477.256L436.856 491.632L457.789 654.43C456.714 658.541 456.401 663.33 456.911 667.888C457.42 672.447 458.716 676.458 460.553 679.163C462.39 681.867 464.64 683.077 466.877 682.562C469.114 682.048 471.183 679.845 472.691 676.371V676.371Z" fill="#A0616A"/>
<path d="M323.911 416.639C323.957 417.696 323.964 418.759 323.93 419.818L360.183 477.835L370.464 469.057L378.863 499.586L361.389 518.804C359.977 520.356 358.362 520.915 356.784 520.395C355.207 519.876 353.753 518.307 352.641 515.923L316.404 438.243C314.486 439.143 312.482 438.807 310.658 437.28C308.833 435.753 307.276 433.107 306.193 429.695C305.11 426.283 304.552 422.266 304.593 418.178C304.634 414.091 305.273 410.126 306.425 406.812C307.576 403.498 309.186 400.991 311.039 399.625C312.893 398.26 314.902 398.099 316.801 399.166C318.699 400.233 320.396 402.476 321.666 405.597C322.936 408.719 323.719 412.57 323.911 416.639H323.911Z" fill="#A0616A"/>
<path d="M408.607 978.493H398.172L393.207 912.496L408.61 912.498L408.607 978.493Z" fill="#A0616A"/>
<path d="M411.269 999.528L377.62 999.526V998.641C377.62 995.064 377.959 991.523 378.617 988.219C379.275 984.915 380.24 981.913 381.456 979.384C382.672 976.855 384.116 974.849 385.705 973.481C387.294 972.112 388.997 971.408 390.717 971.408H390.718L411.27 971.41L411.269 999.528Z" fill="#2F2E41"/>
<path d="M447.763 978.493H437.328L432.363 912.496L447.766 912.498L447.763 978.493Z" fill="#A0616A"/>
<path d="M450.425 999.528L416.776 999.526V998.641C416.776 995.064 417.115 991.523 417.773 988.219C418.431 984.915 419.396 981.913 420.612 979.384C421.828 976.855 423.272 974.849 424.861 973.481C426.45 972.112 428.153 971.408 429.873 971.408H429.874L450.426 971.41L450.425 999.528Z" fill="#2F2E41"/>
<path d="M396.005 965.45C395.052 965.451 394.134 964.713 393.429 963.38C392.725 962.047 392.285 960.214 392.196 958.242L383.102 703.924L383.532 703.852L446.114 693.156L446.131 694.081L451.106 957.533C451.125 958.604 451.04 959.671 450.857 960.671C450.673 961.672 450.394 962.585 450.037 963.357C449.679 964.128 449.251 964.741 448.777 965.16C448.303 965.579 447.793 965.795 447.278 965.795H435.007C434.091 965.804 433.204 965.127 432.509 963.886C431.813 962.646 431.356 960.926 431.221 959.042L414.558 746.219C414.541 745.999 414.486 745.8 414.402 745.662C414.319 745.523 414.213 745.455 414.106 745.471C414 745.487 413.9 745.586 413.827 745.749C413.753 745.911 413.712 746.125 413.712 746.347L412.956 956.477C412.948 958.507 412.568 960.454 411.894 961.921C411.22 963.388 410.301 964.266 409.327 964.375L396.211 965.437C396.142 965.446 396.073 965.45 396.005 965.45Z" fill="#2F2E41"/>
<path d="M406.687 382.524C418.234 382.524 427.594 363.061 427.594 339.053C427.594 315.045 418.234 295.582 406.687 295.582C395.141 295.582 385.78 315.045 385.78 339.053C385.78 363.061 395.141 382.524 406.687 382.524Z" fill="#A0616A"/>
<path d="M410.734 720.146C401.596 720.09 392.503 717.505 383.693 712.462C382.845 711.948 382.108 710.843 381.606 709.332C381.104 707.822 380.869 705.997 380.938 704.167C383.753 616.214 384.414 547.96 378.496 500.735C375.973 480.607 377.119 459.409 381.638 442.576C388.439 417.243 400.94 401.825 414.274 402.357C414.911 402.382 415.554 402.429 416.204 402.499C436.44 404.665 452.208 442.73 451.355 487.352L447.284 700.039C447.269 701.591 447.034 703.099 446.607 704.373C446.181 705.646 445.583 706.629 444.888 707.197C433.969 715.738 422.4 720.124 410.734 720.146Z" fill="#3F3D56"/>
<path d="M381.937 517.062L366.276 477.16C365.831 476.025 365.508 474.703 365.33 473.285C365.152 471.867 365.124 470.387 365.246 468.943C365.368 467.5 365.639 466.129 366.039 464.923C366.439 463.717 366.96 462.704 367.565 461.954L388.779 435.67C391.585 430.962 395.175 428.76 398.761 429.547C402.347 430.334 405.637 434.047 407.909 439.87C410.181 445.693 411.249 453.151 410.88 460.61C410.511 468.069 408.734 474.918 405.939 479.657L389.36 517.486C388.885 518.569 388.304 519.426 387.655 519.999C387.007 520.572 386.306 520.848 385.602 520.808C384.897 520.768 384.205 520.413 383.573 519.766C382.94 519.12 382.382 518.197 381.937 517.062V517.062Z" fill="#3F3D56"/>
<path d="M431.2 512.055C430.557 511.456 429.983 510.576 429.519 509.475C429.054 508.373 428.709 507.076 428.507 505.672L421.457 456.636C419.927 449.846 419.754 442.071 420.977 435.017C422.2 427.962 424.718 422.204 427.98 419.005C431.242 415.806 434.981 415.428 438.376 417.953C441.772 420.478 444.548 425.7 446.094 432.474L459.728 475.286C460.117 476.507 460.375 477.889 460.484 479.337C460.593 480.785 460.55 482.264 460.36 483.675C460.169 485.086 459.834 486.394 459.378 487.512C458.922 488.629 458.356 489.529 457.718 490.15L435.285 511.984C434.646 512.606 433.951 512.934 433.246 512.947C432.541 512.959 431.844 512.655 431.2 512.055V512.055Z" fill="#3F3D56"/>
<path d="M417.018 374.72L401.521 367.345C399.922 366.584 398.002 365.133 397.78 361.754C397.482 357.214 400.625 354.052 400.335 349.509C400.054 345.11 397.192 344.543 395.151 343.244C393.25 341.857 391.683 338.988 390.782 335.241C389.88 331.495 389.716 327.167 390.322 323.173C388.114 329.643 383.068 330.198 380.204 324.955C377.34 319.713 376.79 310.201 378.511 303.118C379.44 299.64 380.751 296.666 382.337 294.439C383.923 292.212 385.74 290.795 387.639 290.303C391.458 289.403 395.318 290.9 398.724 294.6C398.951 289.586 401.963 287.553 404.385 287.508C409.417 287.63 414.306 291.01 418.37 297.179C422.435 303.348 425.474 311.998 427.064 321.926C430.037 341.841 428.048 363.672 419.732 375.324L417.018 374.72Z" fill="#2F2E41"/>
<path d="M573.113 1000H248.8C248.574 1000 248.357 999.814 248.198 999.482C248.038 999.15 247.948 998.7 247.948 998.231C247.948 997.761 248.038 997.311 248.198 996.979C248.357 996.647 248.574 996.461 248.8 996.461H573.113C573.339 996.461 573.555 996.647 573.715 996.979C573.875 997.311 573.964 997.761 573.964 998.231C573.964 998.7 573.875 999.15 573.715 999.482C573.555 999.814 573.339 1000 573.113 1000Z" fill="#3F3D56"/>
</g>
</svg>
