<svg width="552" height="651" viewBox="0 0 552 651" fill="none" xmlns="http://www.w3.org/2000/svg">
<g opacity="0.2">
<g opacity="0.1">
<path opacity="0.1" d="M327.377 12.3823C322.263 18.1942 319.977 27.4054 317.982 36.1385C313.509 55.7342 309.327 75.4615 305.435 95.3203C299.762 124.168 294.609 153.652 284.222 179.897C273.835 206.142 258.701 227.895 243.731 249.39L189.805 326.782C173.141 350.705 155.365 378.316 155.683 411.548C155.957 440.381 170.516 465.958 188.33 480.844C206.145 495.731 226.963 501.824 247.338 507.681C257.681 510.655 268.66 513.576 278.582 508.629C290.498 502.696 298.265 486.8 309.157 477.855C328.698 461.792 353.458 470.829 375.35 479.251C397.243 487.673 423.039 494.062 440.793 474.441C466.556 445.965 455.45 388.597 466.956 345.834C477.875 305.249 508.066 281.91 527.882 248.404C572.15 173.569 552.795 69.6217 491.704 27.6633C471.686 13.9529 451.953 14.6585 430.241 12.4961C403.169 9.81016 350.712 -14.1509 327.377 12.3823Z" fill="#6C63FF"/>
</g>
<g opacity="0.5">
<path opacity="0.5" d="M7.30127 49.3184C7.30127 49.3184 45.5067 140.952 64.7848 260.15C84.063 379.348 115.45 477.711 160.101 443.006" stroke="white" stroke-miterlimit="10"/>
</g>
<g opacity="0.1">
<path opacity="0.1" d="M34.3738 581.848C35.0096 587.258 37.2734 591.378 39.4221 595.156L64.9929 640.028C67.0485 643.64 69.2575 647.395 72.0201 648.374C77.792 650.491 82.4348 640.233 87.368 634.231C104.909 612.895 128.879 645.377 148.705 632.956C156.637 627.987 163.061 616.181 171.146 612.182C192.551 601.56 210.689 648.488 232.79 650.878C240.047 651.637 247.168 647.509 254.102 643.404L300.354 615.999C303.566 614.094 306.833 612.205 310.22 612.091C315.91 611.955 321.211 617.023 326.566 620.673C348.124 635.377 372.062 627.44 394.206 616.302C416.351 605.164 438.655 590.831 461.546 593.206C467.504 593.828 475.375 593.305 477.003 582.485C477.973 576.051 464.878 582.796 461.847 579.329C458.816 575.861 466.029 561.392 462.494 560.777C441.922 557.211 420.961 557.113 400.855 566.089C390.441 570.732 380.196 577.804 369.502 579.253C358.353 580.77 347.264 576.096 336.317 571.847C308.598 561.089 280.407 552.879 252.106 554.548C201.809 557.583 152.268 591.924 102.223 581.969C87.354 578.925 72.991 572.267 59.7966 562.303C53.0435 557.257 53.3449 575.125 46.4548 581.142C44.2129 583.1 38.3423 564.844 36.5883 568.357C35.589 570.289 34.8785 572.477 34.4982 574.793C34.1179 577.11 34.0756 579.508 34.3738 581.848Z" fill="#6C63FF"/>
</g>
<path d="M465.722 495.329L385.776 350.409C379.533 309.725 370.16 309.725 370.16 309.725C306.455 297.859 288.969 282.6 288.969 282.6L274.717 274.876L273.528 273.905C273.473 273.473 273.413 273.04 273.358 272.592C273.303 272.145 273.248 271.553 273.204 271.029C288.769 258.079 300.001 237.131 304.448 212.758C304.564 212.121 304.668 211.468 304.777 210.823C307.836 208.793 310.419 205.608 312.227 201.635C318.349 187.742 312.534 170.155 312.665 153.971C312.747 143.743 315.296 133.72 315.006 123.5C314.764 114.941 312.55 106.724 310.133 98.818C308.96 94.9712 307.666 91.0409 305.419 88.1956C299.46 80.7068 289.813 83.9163 282.161 80.2288C272.262 75.4563 267.652 60.585 261.929 48.6273C259.737 44.0141 255.746 39.143 252.145 41.6696C247.919 44.6287 249.064 54.7579 244.794 57.6032C242.207 59.3255 239.044 57.1555 237.197 54.1509C235.35 51.1463 234.292 47.3753 232.472 44.3404C230.84 41.7144 228.727 39.7472 226.354 38.6467C223.982 37.5462 221.438 37.3533 218.993 38.0883C218.024 38.3056 217.128 38.9401 216.433 39.9017C215.069 42.1021 215.924 45.3798 216.017 48.2479C216.34 57.9067 207.795 63.271 200.735 64.2953C193.675 65.3196 185.354 65.441 181.128 73.2181C178.891 77.338 178.414 82.7023 176.907 87.3913C173.41 98.2641 164.952 104.22 157.519 110.465C150.086 116.709 142.434 125.814 142.5 137.681C142.566 149.062 149.823 158.281 151.1 169.548C151.78 175.519 150.722 181.688 151.566 187.629C153.118 198.524 160.474 205.838 167.26 212.022C167.72 212.439 168.186 212.857 168.663 213.251C168.783 213.919 168.904 214.579 169.036 215.239C171.641 227.943 176.122 239.762 182.194 249.948C188.266 260.134 195.798 268.467 204.314 274.421C204.424 275.058 204.528 275.703 204.632 276.363C204.955 278.397 205.257 280.514 205.525 282.684L205.317 282.76V282.547L126.357 310.416C125.882 310.179 125.375 310.091 124.872 310.158C121.638 309.794 111.525 314.619 99.7232 380.061L49.1407 503.804C49.1407 503.804 19.7878 542.795 42.2725 575.884C53.7341 592.736 66.6593 596.81 76.5752 596.757C82.3336 596.87 88.0586 595.528 93.4689 592.796C93.4689 592.796 93.0633 591.932 92.4384 590.399L99.1257 591.529C112.281 611.773 134.689 604.663 134.689 604.663C134.689 604.663 166.564 604.162 167.737 581.089L225.023 605.414L225.253 609.747H255.335L255.286 606.985L318.574 580.596C323.507 593.221 335.566 599.466 335.566 599.466C335.566 599.466 372.708 601.628 384.384 592.265C389.29 588.28 394.633 585.433 400.203 583.836L400.527 583.79L400.45 583.896L471.96 573.274C504.443 534.313 465.722 495.329 465.722 495.329ZM105.775 529.791L104.201 528.531C107.012 527.045 109.903 525.863 112.846 524.995L126.758 501.224L129.164 524.669C121.182 522.121 112.798 523.957 105.775 529.791ZM374.841 529.601C369.661 524.185 363.325 521.314 356.834 521.444L357.382 463.735C362.606 468.355 366.991 473.454 368.29 478.371C372.04 492.787 390.15 515.663 390.15 515.663L380.744 526.361L379.281 528.023C378.886 528.152 378.491 528.281 378.097 528.425L374.841 529.601Z" fill="url(#paint0_linear)"/>
<path d="M91.1449 593.335L105.742 595.861L114.254 537.772L97.8322 524.297L76.5479 556.293L91.1449 593.335Z" fill="#EFB7B9"/>
<path opacity="0.03" d="M91.1449 593.335L105.742 595.861L114.254 537.772L97.8322 524.297L76.5479 556.293L91.1449 593.335Z" fill="black"/>
<path d="M286.963 307.943L251.69 351.722C251.69 351.722 183.572 372.77 200.603 343.3C210.25 326.608 208.968 301.274 206.041 282.442C204.731 273.902 202.913 265.527 200.603 257.403C200.603 257.403 288.196 184.192 276.033 239.763C272.426 256.242 271.922 268.951 272.991 278.663C275.545 301.699 286.963 307.943 286.963 307.943Z" fill="#EFB7B9"/>
<path opacity="0.1" d="M276.033 239.762C272.426 256.242 271.922 268.951 272.991 278.662C263.012 287.215 251.608 292.057 239.881 292.722C228.154 293.387 216.502 289.851 206.052 282.456C204.743 273.916 202.924 265.541 200.614 257.418C200.614 257.418 288.196 184.192 276.033 239.762Z" fill="black"/>
<path d="M305.227 196.817C305.227 215.464 301.232 233.692 293.749 249.197C286.265 264.702 275.628 276.787 263.183 283.924C250.738 291.062 237.043 292.932 223.83 289.296C210.617 285.661 198.48 276.685 188.953 263.502C179.425 250.32 172.935 233.522 170.304 215.235C167.673 196.947 169.018 177.99 174.169 160.76C179.32 143.53 188.047 128.802 199.245 118.437C210.444 108.072 223.611 102.535 237.082 102.528C246.037 102.487 254.909 104.897 263.188 109.621C271.468 114.344 278.991 121.287 285.324 130.051C291.657 138.814 296.676 149.224 300.092 160.682C303.508 172.141 305.253 184.421 305.227 196.817Z" fill="#EFB7B9"/>
<path d="M190.276 318.891V491.467L310.089 477.999L290.022 302.055L237.11 345.826L190.276 318.891Z" fill="#E1E7EF"/>
<path opacity="0.1" d="M255.351 424.964L242.015 372.771H242.563C256.552 351.723 250.467 339.098 250.467 339.098H231.052C218.692 351.238 227.27 366.966 230.181 371.496L224.359 424.964H255.351Z" fill="black"/>
<path d="M255.351 423.279L242.015 371.085H242.563C256.552 350.038 250.467 337.412 250.467 337.412H231.052C218.692 349.552 227.27 365.281 230.181 369.81L224.359 423.279H255.351Z" fill="#444053"/>
<path opacity="0.1" d="M273.155 281.645C273.155 281.645 269.318 306.258 242.585 339.089C242.585 339.089 250.808 342.883 252.013 373.187L262.05 392.155C262.05 392.155 269.954 352.587 283.943 339.119C297.931 325.652 283.943 290.294 283.943 290.294L273.155 281.645Z" fill="black"/>
<path d="M273.155 279.975C273.155 279.975 269.318 304.588 242.585 337.419C242.585 337.419 250.808 341.213 252.013 371.517L262.05 390.485C262.05 390.485 269.954 350.917 283.943 337.449C297.931 323.982 283.943 288.624 283.943 288.624L273.155 279.975Z" fill="#E1E7EF"/>
<path opacity="0.1" d="M237.082 339.089C237.082 339.089 225.571 351.722 224.946 371.927C224.321 392.132 218.259 392.132 218.259 392.132C218.259 392.132 203.053 327.313 198.191 321.418C193.329 315.522 206.961 290.658 206.961 290.658C206.961 290.658 214.608 325.621 237.082 339.089Z" fill="black"/>
<path d="M237.082 337.413C237.082 337.413 225.571 350.038 224.946 370.266C224.321 390.494 218.259 390.471 218.259 390.471C218.259 390.471 203.048 325.622 198.164 319.734C193.28 313.846 206.934 288.975 206.934 288.975C206.934 288.975 214.608 323.937 237.082 337.413Z" fill="#E1E7EF"/>
<path opacity="0.1" d="M272.382 280.166L287.588 288.588C287.588 288.588 304.618 303.763 366.652 315.531C366.652 315.531 375.773 315.531 381.857 355.941L459.693 499.897C459.693 499.897 497.4 538.593 465.777 577.35L396.164 587.874C396.164 587.874 436.304 534.837 375.488 533.153L386.725 520.095C386.725 520.095 369.085 497.333 365.44 483.053C361.795 468.774 332.004 452.749 332.004 452.749L335.654 573.973L280.895 585.749L273.002 360.175C272.622 349.536 273.063 338.871 274.317 328.361C276.378 311.252 278.554 284.149 272.382 280.166Z" fill="black"/>
<path d="M272.991 280.166L288.196 288.588C288.196 288.588 305.227 303.763 367.26 315.531C367.26 315.531 376.381 315.531 382.465 355.941L460.302 499.897C460.302 499.897 498.008 538.593 466.386 577.35L396.772 587.874C396.772 587.874 436.912 534.837 376.096 533.153L387.349 520.103C387.349 520.103 369.71 497.34 366.065 483.061C362.42 468.781 332.628 452.757 332.628 452.757L336.279 573.981L281.481 585.749L273.588 360.175C273.208 349.536 273.649 338.871 274.904 328.361C276.987 311.252 279.163 284.149 272.991 280.166Z" fill="#67647E"/>
<path opacity="0.1" d="M207.307 288.58L130.068 316.396C130.068 316.396 118.513 306.297 104.525 385.441L55.2634 508.357C55.2634 508.357 26.6779 547.053 48.5761 579.914C70.4743 612.775 97.854 596.697 97.854 596.697C97.854 596.697 72.919 542.827 116.71 529.351L133.154 500.732L207.351 512.515L205.481 364.348L207.559 347.079C209.806 328.414 209.806 309.362 207.559 290.697L207.307 288.58Z" fill="black"/>
<path d="M206.699 288.58L129.46 316.396C129.46 316.396 117.905 306.297 103.917 385.441L54.6552 508.357C54.6552 508.357 26.0477 547.053 47.9733 579.861C69.899 612.669 97.2347 596.697 97.2347 596.697C97.2347 596.697 72.2998 542.827 116.091 529.351L132.535 500.732L206.731 512.515L204.873 364.348L206.934 347.079C209.182 328.414 209.182 309.362 206.934 290.697L206.699 288.58Z" fill="#67647E"/>
<path d="M130.677 371.086L123.375 378.658L233.459 417.384V402.232L130.677 371.086Z" fill="#E4E6ED"/>
<path d="M343.542 368.559L350.838 376.138L233.459 417.384V402.232L343.542 368.559Z" fill="#E4E6ED"/>
<path d="M116.688 371.086L218.862 403.917L226.158 609.331L136.756 570.605L116.688 371.086Z" fill="#6C63FF"/>
<path d="M355.705 371.086L246.839 405.601L252.918 611.857L353.88 568.92L355.705 371.086Z" fill="#6C63FF"/>
<path d="M215.211 403.916C215.211 403.916 233.047 419.091 251.799 403.916L255.45 613.541H226.163L215.211 403.916Z" fill="#6C63FF"/>
<path opacity="0.1" d="M215.211 403.916C215.211 403.916 233.047 419.091 251.799 403.916L255.45 613.541H226.163L215.211 403.916Z" fill="black"/>
<path d="M133.111 368.559V374.454L233.459 402.232C233.459 402.232 182.372 376.131 133.111 368.559Z" fill="#D8D9E5"/>
<path d="M341.717 365.189V371.085L233.459 402.231C233.459 402.231 292.444 372.769 341.717 365.189Z" fill="#D8D9E5"/>
<path d="M374.983 532.773L371.81 533.957C371.81 533.957 351.139 508.919 324.79 546.856C298.441 584.793 333.56 603.359 333.56 603.359C333.56 603.359 369.738 605.506 381.101 596.204C385.991 592.145 391.347 589.274 396.936 587.714C400.354 586.786 403.465 584.357 405.805 580.787C407.933 577.561 409.513 573.717 410.429 569.537C411.346 565.357 411.575 560.947 411.1 556.628C410.486 550.96 408.683 545.665 405.916 541.401C403.149 537.136 399.539 534.089 395.533 532.637C388.791 530.211 381.709 530.258 374.983 532.773Z" fill="#EFB7B9"/>
<path d="M106.959 536.932C106.959 536.932 131.285 506.628 161.088 557.137C190.89 607.646 137.973 608.511 137.973 608.511C137.973 608.511 109.365 617.745 98.4406 584.915C87.5162 552.084 106.959 536.932 106.959 536.932Z" fill="#EFB7B9"/>
<path opacity="0.1" d="M377.56 530.716C377.56 530.716 405.838 542.142 399.776 587.31L416.867 584.731L420.474 561.763L413.178 529.775L399.189 522.188L377.56 530.716Z" fill="black"/>
<path d="M378.168 530.716C378.168 530.716 406.447 542.142 400.384 587.31L417.475 584.731L421.082 561.763L413.786 529.775L399.798 522.188L378.168 530.716Z" fill="#67647E"/>
<path opacity="0.1" d="M305.227 196.817C305.232 204.364 304.58 211.884 303.286 219.215C299.012 222.027 294.227 222.999 289.55 222.008C281.492 220.3 274.377 213.661 268.485 205.869C262.592 198.077 257.648 189.01 251.964 180.907C246.811 173.562 240.453 166.695 233.064 166.399C226.355 166.126 220.243 171.316 213.775 173.774C207 176.354 193.351 169.313 190.046 177.265C188.105 181.938 188.791 192.219 187.645 197.751C186.399 203.792 184.646 209.611 182.421 215.088C180.777 219.086 178.36 223.328 175.043 223.29C173.75 223.2 172.495 222.646 171.404 221.681C168.839 208.714 168.308 195.137 169.845 181.862C171.382 168.587 174.952 155.921 180.315 144.712C185.679 133.503 192.712 124.012 200.943 116.874C209.174 109.737 218.413 105.118 228.039 103.328C237.665 101.538 247.457 102.618 256.757 106.495C266.057 110.373 274.65 116.958 281.961 125.81C289.271 134.662 295.13 145.575 299.144 157.818C303.157 170.061 305.233 183.35 305.232 196.795L305.227 196.817Z" fill="black"/>
<path d="M213.769 172.105C220.243 169.646 226.377 164.456 233.059 164.73C240.447 165.026 246.811 171.892 251.958 179.237C257.637 187.333 262.581 196.399 268.479 204.199C274.377 211.999 281.487 218.615 289.544 220.338C297.602 222.06 306.674 217.864 310.856 208.198C316.814 194.404 311.158 176.93 311.284 160.86C311.366 150.701 313.844 140.746 313.564 130.594C313.328 122.096 311.174 113.902 308.823 106.079C307.677 102.285 306.422 98.3549 304.229 95.54C298.424 88.1044 289.035 91.2911 281.58 87.6263C271.944 82.8842 267.449 68.1115 261.88 56.2372C259.731 51.6848 255.85 46.8212 252.353 49.3251C248.237 52.269 249.355 62.3299 245.194 65.1524C242.673 66.8596 239.592 64.7048 237.794 61.7229C235.997 58.7411 234.961 54.9929 233.196 51.9807C231.625 49.3755 229.567 47.4181 227.247 46.3222C224.927 45.2263 222.434 45.0341 220.04 45.7666C219.092 45.9839 218.218 46.6137 217.546 47.5648C216.22 49.75 217.047 53.005 217.14 55.8578C217.458 65.4483 209.154 70.7747 202.258 71.7914C195.363 72.8081 187.278 72.9295 183.167 80.6611C180.974 84.7507 180.525 90.0771 179.056 94.7358C175.646 105.54 167.413 111.428 160.172 117.657C152.931 123.887 145.482 132.908 145.548 144.691C145.614 156.019 152.674 165.177 153.923 176.354C154.581 182.287 153.556 188.418 154.378 194.313C155.886 205.133 163.05 212.394 169.661 218.54C171.305 220.057 173.059 221.643 175.032 221.666C178.321 221.704 180.782 217.462 182.41 213.464C184.635 207.987 186.388 202.168 187.634 196.126C188.78 190.58 188.095 180.299 190.035 175.64C193.346 167.643 206.994 174.677 213.769 172.105Z" fill="#585268"/>
</g>
<defs>
<linearGradient id="paint0_linear" x1="259.369" y1="609.747" x2="259.369" y2="37.6331" gradientUnits="userSpaceOnUse">
<stop stop-color="#808080" stop-opacity="0.25"/>
<stop offset="0.54" stop-color="#808080" stop-opacity="0.12"/>
<stop offset="1" stop-color="#808080" stop-opacity="0.1"/>
</linearGradient>
</defs>
</svg>
